<?xml version="1.0" encoding="utf-8"?>
<!-- Generator: Adobe Illustrator 18.0.0, SVG Export Plug-In . SVG Version: 6.00 Build 0)  -->
<!DOCTYPE svg PUBLIC "-//W3C//DTD SVG 1.1//EN" "http://www.w3.org/Graphics/SVG/1.1/DTD/svg11.dtd">
<svg version="1.1" id="Ebene_1" xmlns="http://www.w3.org/2000/svg" xmlns:xlink="http://www.w3.org/1999/xlink" x="0px" y="0px"
	 viewBox="0 0 542.8 560" enable-background="new 0 0 542.8 560" xml:space="preserve">
<g id="Ebene_3">
</g>
<g id="Ebene_2">
</g>
<g>
	<path fill="#898888" d="M5301.5,0.3c0,0,54.6,1035.6,253.7,1345.3c0.8,1.3,1.3,3.1,1.8,5.2c8.5,48.2-93.9,296.1-93.9,296.1
		s6.4,20.6,28.4,28.4c21.8,7.7-9.8,44.7-9.8,44.7s16.4,29.2,26.2,29.2c9.8,0-6.6,22.1-6.6,22.1h208.1v-347.3V0L5301.5,0.3z"/>
	<path fill="none" stroke="#EAEAEA" stroke-miterlimit="10" d="M5498.2,1692c0,0,97.2-213.2,98.3-305"/>
	<path fill="none" stroke="#EAEAEA" stroke-miterlimit="10" d="M5511.3,1752.6c0,0,108.7-255.8,109.8-347.6"/>
	<path fill="none" stroke="#EAEAEA" stroke-miterlimit="10" d="M5555.6,1772.3c0,0,96.4-266.6,97.5-358.4"/>
	<path fill="none" stroke="#EAEAEA" stroke-miterlimit="10" d="M5611.3,1772.3c0,0,58.7-259.1,59.8-350.9"/>
	<path fill="none" stroke="#EAEAEA" stroke-miterlimit="10" d="M5652.3,1772.3c0,0,39-254.7,40.2-346.5"/>
	<path fill="#F7F7F7" d="M5708.8,1424.2c0,0-109.5-5.7-153.2-64.2l-6.4-23.6c0,0,79.8,77.5,158,68.8L5708.8,1424.2z"/>
	<path fill="none" stroke="#F7F7F7" stroke-miterlimit="10" d="M5604.2,1377.1c0,0-219.4-627-177.7-1377"/>
	<path fill="none" stroke="#F7F7F7" stroke-miterlimit="10" d="M5629,1387c0,0-174.7-848.3-130.8-1386.8"/>
	<path fill="none" stroke="#F7F7F7" stroke-miterlimit="10" d="M5653.1,1399.1c0,0-127.7-991-56.5-1398.9"/>
	<path fill="none" stroke="#F7F7F7" stroke-miterlimit="10" d="M5672.2,1405c0,0-51.8-1012-1.3-1405"/>
	<path fill="none" stroke="#F7F7F7" stroke-miterlimit="10" d="M5692.4,1405.7c0,0-23.6-1301.1,16.4-1349.6"/>
</g>
<ellipse fill="#EAD8D8" cx="4401.5" cy="3124.8" rx="30.5" ry="35.1"/>
<line opacity="5.000000e-02" fill="none" stroke="#564538" stroke-width="4" stroke-miterlimit="10" enable-background="new    " x1="4432.1" y1="2911.3" x2="4427.7" y2="4950"/>
<line opacity="0.1" fill="none" stroke="#564538" stroke-width="4" stroke-miterlimit="10" enable-background="new    " x1="4376.9" y1="3123.7" x2="4376.9" y2="4949.4"/>
<ellipse fill="#E2C5C5" cx="4401.5" cy="3125.5" rx="15.9" ry="18.4"/>
<line fill="none" stroke="#EFC5C5" stroke-width="7" stroke-miterlimit="10" x1="4402.3" y1="3090.9" x2="4402.3" y2="2910.6"/>
<line opacity="0.1" fill="none" stroke="#564538" stroke-width="4" stroke-miterlimit="10" enable-background="new    " x1="4550.6" y1="3009.1" x2="4702" y2="4952.6"/>
<line opacity="5.000000e-02" fill="none" stroke="#564538" stroke-width="4" stroke-miterlimit="10" enable-background="new    " x1="4480.5" y1="2911" x2="4499.8" y2="4953.8"/>
<ellipse opacity="0.3" fill="#564538" enable-background="new    " cx="6845" cy="3355.2" rx="30.5" ry="35.1"/>
<ellipse opacity="0.3" fill="#564538" enable-background="new    " cx="4875.1" cy="3000.3" rx="30.5" ry="35.1"/>
<line opacity="0.3" fill="none" stroke="#564538" stroke-width="4" stroke-miterlimit="10" enable-background="new    " x1="6866.5" y1="3380" x2="6871.2" y2="4950"/>
<line opacity="0.1" fill="none" stroke="#564538" stroke-width="4" stroke-miterlimit="10" enable-background="new    " x1="6820.9" y1="3376.7" x2="6571.5" y2="4950"/>
<line opacity="0.1" fill="none" stroke="#564538" stroke-width="4" stroke-miterlimit="10" enable-background="new    " x1="6845" y1="3320.3" x2="6845" y2="2915.5"/>
<ellipse fill="#EAD8D8" cx="6967.9" cy="3009.8" rx="30.5" ry="35.1"/>
<line opacity="0.1" fill="none" stroke="#564538" stroke-width="4" stroke-miterlimit="10" enable-background="new    " x1="6994.2" y1="3010.6" x2="6994.2" y2="4954.3"/>
<line opacity="0.1" fill="none" stroke="#564538" stroke-width="4" stroke-miterlimit="10" enable-background="new    " x1="6943.4" y1="3010.6" x2="6943.4" y2="4954.3"/>
<ellipse fill="#E2C5C5" cx="6967.9" cy="3010.3" rx="15.9" ry="18.4"/>
<line fill="none" stroke="#EFC5C5" stroke-width="7" stroke-miterlimit="10" x1="6968.8" y1="2976.2" x2="6968.8" y2="2910.6"/>
<line opacity="0.2" fill="none" stroke="#564538" stroke-width="4" stroke-miterlimit="10" enable-background="new    " x1="5412.7" y1="2915.5" x2="5412.7" y2="4949.4"/>
<line opacity="0.1" fill="none" stroke="#564538" stroke-width="4" stroke-miterlimit="10" enable-background="new    " x1="5361.8" y1="2910.6" x2="5361.8" y2="4949.4"/>
<line opacity="0.2" fill="none" stroke="#564538" stroke-width="4" stroke-miterlimit="10" enable-background="new    " x1="5535.6" y1="2914.7" x2="5961.8" y2="4950"/>
<line opacity="0.1" fill="none" stroke="#564538" stroke-width="4" stroke-miterlimit="10" enable-background="new    " x1="5484.8" y1="2910.6" x2="5484.8" y2="4937.9"/>
<line opacity="0.25" fill="none" stroke="#564538" stroke-width="4" stroke-miterlimit="10" enable-background="new    " x1="4899.7" y1="3010.6" x2="4899.7" y2="3754.6"/>
<line opacity="0.25" fill="none" stroke="#564538" stroke-width="4" stroke-miterlimit="10" enable-background="new    " x1="4844.6" y1="3010.3" x2="4273.6" y2="4953.8"/>
<line opacity="0.3" fill="none" stroke="#564538" stroke-width="4" stroke-miterlimit="10" enable-background="new    " x1="4875.1" y1="2964.7" x2="4875.1" y2="2910.6"/>
<ellipse opacity="0.3" fill="#564538" enable-background="new    " cx="6269.1" cy="2998.5" rx="30.5" ry="35.1"/>
<line opacity="0.2" fill="none" stroke="#564538" stroke-width="4" stroke-miterlimit="10" enable-background="new    " x1="6245.2" y1="3007.3" x2="6245.2" y2="3753"/>
<line opacity="0.2" fill="none" stroke="#564538" stroke-width="4" stroke-miterlimit="10" enable-background="new    " x1="6299.4" y1="3008.5" x2="6870.6" y2="4951.8"/>
<line opacity="0.3" fill="none" stroke="#564538" stroke-width="4" stroke-miterlimit="10" enable-background="new    " x1="6269.8" y1="2963.1" x2="6269.8" y2="2909"/>
<g>
	<path fill="#AA8888" d="M6648.8,3081.2C6650.8,3083,6648.8,3081.2,6648.8,3081.2l-14.4,12.3l-47,82.3l46.1,46.2l60-60.6
		c0,0,7.5-5.2,13.3-12.8c5.7-7.5-0.3,15.4,5.2,18.5c5.6,3.3,8.5,61.8,8.5,61.8l64.2-32.4l-13.3-64.7l-9.8-38.2l10.8-25.7l25.6-52
		c0,0,1.5-61.6-60.8-55.2c-2.8,0.3-58.3,70.5-58.3,70.5l-37.9,2.3l-85.9,64.9l46.5,2.1C6601.7,3100.6,6646.7,3079.4,6648.8,3081.2z"
		/>
	<polygon fill="#AA8888" points="6713.9,3029.1 6713.9,2964.1 6753.2,2948.8 6753.2,3012.1 6779.5,2998.5 6779.5,2934.7 
		6743.1,2938.2 6742.6,2910.6 6726.7,2910.6 6725.2,2943.4 6694.4,2956.8 6692.6,3040.1 	"/>
</g>
<g>
	<path fill="#AA8888" d="M4734,3100.6l46.5-2.1l-85.9-64.9l-37.9-2.3c0,0-55.6-70.1-58.3-70.5c-62.4-6.4-60.8,55.2-60.8,55.2
		l25.6,52l10.8,25.7l-9.8,38.2l-13.3,64.7l64.2,32.4c0,0,3-58.5,8.5-61.8s-0.5-26.2,5.2-18.5c5.7,7.5,13.3,12.8,13.3,12.8l60,60.6
		l46.1-46.2l-47-82.3l-14.4-12.3c0,0-2,1.8,0,0C4688.8,3079.4,4734,3100.6,4734,3100.6z"/>
	<polygon fill="#AA8888" points="4621.1,3029.1 4621.1,2964.1 4581.8,2948.8 4581.8,3012.1 4555.5,2998.5 4555.5,2934.7 
		4592.1,2938.2 4593.1,2910.6 4608.8,2910.6 4610.4,2943.4 4641.2,2956.8 4642.7,3040.1 	"/>
</g>
<polygon opacity="0.4" fill="#EAD768" enable-background="new    " points="4702,3208.1 4918.7,4937.9 6468.2,4937.9 4748.1,3161.5 
	"/>
<polygon opacity="0.4" fill="#EAD768" enable-background="new    " points="6323.9,4949.4 5033.1,4949.4 6587.4,3175.5 
	6633.4,3221.7 "/>
<path fill="#AA5E5E" d="M4432.1,2911.3c0,0-46.4,1193.1-215,1549.9c-0.7,1.5-1.3,3.6-1.6,6.1c-7.2,55.6,79.5,341.2,79.5,341.2
	s-5.4,23.9-23.9,32.6c-18.5,8.8,8.4,51.6,8.4,51.6s-13.9,34.1-22.1,34.1s5.6,25.9,5.6,25.9h-176v-401V2911L4432.1,2911.3z"/>
<path fill="#F7F7F7" d="M4086.8,4542.1c0,0,95.2-6.6,133.2-74.1l5.6-27.2c0,0-69.5,89.3-137.3,79.3L4086.8,4542.1z"/>
<path fill="#AA5E5E" d="M6876.5,2911.3c0,0,48,1193.1,223.2,1549.9c0.8,1.5,1.1,3.6,1.5,6.1c7.5,55.6-82.6,341.2-82.6,341.2
	s5.7,23.9,24.9,32.6c19.2,8.8-8.7,51.6-8.7,51.6s14.4,34.1,23.1,34.1s-5.7,25.9-5.7,25.9h182.9v-401V2911L6876.5,2911.3z"/>
<path fill="#F7F7F7" d="M7234.6,4551.6c0,0-94.4-6.6-132.3-74.1l-5.6-27.2c0,0,68.8,89.3,136.4,79.3L7234.6,4551.6z"/>
<g>
	<g>
		<g enable-background="new    ">
			<g enable-background="new    ">
				<g>
					<defs>
						<path id="SVGID_1_" d="M6232.6,3822.7l-5.6,22.5c-16.9-5.9-33.8-11.6-50.6-17.2l5.6-22.5
							C6198.8,3811,6215.7,3816.8,6232.6,3822.7z"/>
					</defs>
					<clipPath id="SVGID_2_">
						<use xlink:href="#SVGID_1_"  overflow="visible"/>
					</clipPath>
					<g clip-path="url(#SVGID_2_)" enable-background="new    ">
						<path fill="#763D3D" d="M6232.6,3822.7l-5.6,22.5c-16.9-5.9-33.8-11.6-50.6-17.2l5.6-22.5
							C6198.8,3811,6215.7,3816.8,6232.6,3822.7"/>
					</g>
				</g>
			</g>
			<g enable-background="new    ">
				<g>
					<defs>
						<path id="SVGID_3_" d="M6260.1,3872.5l-5.6,22.5c5.2-23.3-9.3-44.2-27.5-49.8l5.6-22.5
							C6250.8,3828.2,6265.4,3849.2,6260.1,3872.5z"/>
					</defs>
					<clipPath id="SVGID_4_">
						<use xlink:href="#SVGID_3_"  overflow="visible"/>
					</clipPath>
					<g clip-path="url(#SVGID_4_)" enable-background="new    ">
						<path fill="#763D3D" d="M6260.1,3872.5l-5.6,22.5c5.2-23.3-9.3-44.2-27.5-49.8l5.6-22.5
							C6250.8,3828.2,6265.4,3849.2,6260.1,3872.5"/>
					</g>
				</g>
			</g>
			<g enable-background="new    ">
				<g>
					<defs>
						<path id="SVGID_5_" d="M6259.9,3873.5l-5.6,22.5c0-0.3,0.2-0.7,0.2-1l5.6-22.5C6260.1,3872.8,6259.9,3873.1,6259.9,3873.5z"/>
					</defs>
					<clipPath id="SVGID_6_">
						<use xlink:href="#SVGID_5_"  overflow="visible"/>
					</clipPath>
					<g clip-path="url(#SVGID_6_)" enable-background="new    ">
						<path fill="#763D3D" d="M6259.9,3873.5l-5.6,22.5c0-0.3,0.2-0.7,0.2-1l5.6-22.5C6260.1,3872.8,6259.9,3873.1,6259.9,3873.5"/>
					</g>
				</g>
			</g>
			<g enable-background="new    ">
				<g>
					<defs>
						<path id="SVGID_7_" d="M6376.8,3830.2l-5.6,22.5c-8.2,31.1-16.4,62.3-24.6,93.3l5.6-22.5
							C6360.4,3892.5,6368.6,3861.3,6376.8,3830.2z"/>
					</defs>
					<clipPath id="SVGID_8_">
						<use xlink:href="#SVGID_7_"  overflow="visible"/>
					</clipPath>
					<g clip-path="url(#SVGID_8_)" enable-background="new    ">
						<path fill="#7F4242" d="M6376.8,3830.2l-5.6,22.5c-8.2,31.1-16.4,62.3-24.6,93.3l5.6-22.5
							C6360.4,3892.5,6368.6,3861.3,6376.8,3830.2"/>
					</g>
				</g>
			</g>
			<g enable-background="new    ">
				<g>
					<defs>
						<path id="SVGID_9_" d="M6303.9,3889.4l-5.6,22.5c-10.2,42-40.8,60-72.9,57.9c-7.9-0.5-15.9-2.3-23.6-5.1
							c-16.1-5.7-32.3-11.1-48.5-16.4l5.6-22.5c16.2,5.2,32.4,10.8,48.5,16.4c7.9,2.9,15.7,4.6,23.6,5.1
							C6263.1,3949.3,6293.5,3931.3,6303.9,3889.4z"/>
					</defs>
					<clipPath id="SVGID_10_">
						<use xlink:href="#SVGID_9_"  overflow="visible"/>
					</clipPath>
					<g clip-path="url(#SVGID_10_)" enable-background="new    ">
						<path fill="#7F4242" d="M6303.9,3889.4l-5.6,22.5c-1,3.9-2.1,7.5-3.3,11l5.6-22.5C6301.7,3896.9,6302.9,3893.3,6303.9,3889.4"
							/>
						<path fill="#7A4040" d="M6300.4,3900.3l-5.6,22.5c-3.6,9.8-8.5,18-14.3,24.7l5.6-22.5
							C6292.1,3918.4,6296.8,3910.2,6300.4,3900.3"/>
						<path fill="#763D3D" d="M6286.2,3925.1l-5.6,22.5c-14.4,16.4-34.4,23.6-55.4,22.1c-7.9-0.5-15.9-2.3-23.6-5.1
							c-16.1-5.7-32.3-11.1-48.5-16.4l5.6-22.5c16.2,5.2,32.4,10.8,48.5,16.4c7.9,2.9,15.7,4.6,23.6,5.1
							C6251.8,3948.7,6271.7,3941.6,6286.2,3925.1"/>
					</g>
				</g>
			</g>
			<g enable-background="new    ">
				<g>
					<defs>
						<path id="SVGID_11_" d="M6422.5,4005.2l-5.6,22.5c-27.2-12.9-54.6-25.4-82.1-37.4l5.6-22.5
							C6367.9,3979.8,6395.3,3992.3,6422.5,4005.2z"/>
					</defs>
					<clipPath id="SVGID_12_">
						<use xlink:href="#SVGID_11_"  overflow="visible"/>
					</clipPath>
					<g clip-path="url(#SVGID_12_)" enable-background="new    ">
						<path fill="#763D3D" d="M6422.5,4005.2l-5.6,22.5c-27.2-12.9-54.6-25.4-82.1-37.4l5.6-22.5
							C6367.9,3979.8,6395.3,3992.3,6422.5,4005.2"/>
					</g>
				</g>
			</g>
			<g enable-background="new    ">
				<g>
					<defs>
						<path id="SVGID_13_" d="M6102.8,3986.2l-5.6,22.5c14.1-80.1,28.4-160.1,42.4-240.3l5.6-22.5
							C6131.1,3826.1,6116.9,3906.1,6102.8,3986.2z"/>
					</defs>
					<clipPath id="SVGID_14_">
						<use xlink:href="#SVGID_13_"  overflow="visible"/>
					</clipPath>
					<g clip-path="url(#SVGID_14_)" enable-background="new    ">
						<path fill="#763D3D" d="M6102.8,3986.2l-5.6,22.5c14.1-80.1,28.4-160.1,42.4-240.3l5.6-22.5
							C6131.1,3826.1,6116.9,3906.1,6102.8,3986.2"/>
					</g>
				</g>
			</g>
			<g enable-background="new    ">
				<g>
					<defs>
						<path id="SVGID_15_" d="M6144.6,3999.2l-5.6,22.5c-16.7-5.4-25.1-8-41.8-12.9l5.6-22.5
							C6119.5,3991.1,6127.9,3993.7,6144.6,3999.2z"/>
					</defs>
					<clipPath id="SVGID_16_">
						<use xlink:href="#SVGID_15_"  overflow="visible"/>
					</clipPath>
					<g clip-path="url(#SVGID_16_)" enable-background="new    ">
						<path fill="#763D3D" d="M6144.6,3999.2l-5.6,22.5c-16.7-5.4-25.1-8-41.8-12.9l5.6-22.5
							C6119.5,3991.1,6127.9,3993.7,6144.6,3999.2"/>
					</g>
				</g>
			</g>
			<g>
				<path fill="#D16D6D" d="M6242.2,3777.6c41,13.8,74.9,57.4,61.6,111.9c-10.2,42-40.8,60-72.9,57.9c-7.9-0.5-15.9-2.3-23.6-5.1
					c-16.1-5.7-32.3-11.1-48.5-16.4c-4.8,24.4-9.5,49-14.3,73.4c-16.7-5.4-25.1-8-41.8-12.9c14.1-80.1,28.4-160.1,42.4-240.3
					C6177.7,3755.8,6210,3766.3,6242.2,3777.6z M6260.1,3872.5c5.2-23.3-9.3-44.2-27.5-49.8c-16.9-5.9-33.8-11.6-50.6-17
					c-4.8,24.9-9.7,49.8-14.4,74.7c16.6,5.4,32.9,10.8,49.3,16.7c3.4,1.3,6.9,2.1,10.2,2.3
					C6241.8,3900.3,6255.8,3891.2,6260.1,3872.5"/>
			</g>
			<g enable-background="new    ">
				<g>
					<defs>
						<path id="SVGID_17_" d="M6274,4046.4l-5.6,22.5c19.3-78.3,38.5-156.5,57.9-234.8l5.6-22.5
							C6312.7,3889.8,6293.4,3968,6274,4046.4z"/>
					</defs>
					<clipPath id="SVGID_18_">
						<use xlink:href="#SVGID_17_"  overflow="visible"/>
					</clipPath>
					<g clip-path="url(#SVGID_18_)" enable-background="new    ">
						<path fill="#763D3D" d="M6274,4046.4l-5.6,22.5c19.3-78.3,38.5-156.5,57.9-234.8l5.6-22.5
							C6312.7,3889.8,6293.4,3968,6274,4046.4"/>
					</g>
				</g>
			</g>
			<g enable-background="new    ">
				<g>
					<defs>
						<path id="SVGID_19_" d="M6340.4,3967.9l-5.6,22.5c-8.4,32-16.9,63.8-25.2,95.7l5.6-22.5
							C6323.7,4031.6,6332.1,3999.6,6340.4,3967.9z"/>
					</defs>
					<clipPath id="SVGID_20_">
						<use xlink:href="#SVGID_19_"  overflow="visible"/>
					</clipPath>
					<g clip-path="url(#SVGID_20_)" enable-background="new    ">
						<path fill="#7F4242" d="M6340.4,3967.9l-5.6,22.5c-8.4,32-16.9,63.8-25.2,95.7l5.6-22.5
							C6323.7,4031.6,6332.1,3999.6,6340.4,3967.9"/>
					</g>
				</g>
			</g>
			<g enable-background="new    ">
				<g>
					<defs>
						<path id="SVGID_21_" d="M6315.2,4063.4l-5.6,22.5c-16.4-7-24.6-10.5-41.1-17.2l5.6-22.5
							C6290.6,4052.9,6298.8,4056.4,6315.2,4063.4z"/>
					</defs>
					<clipPath id="SVGID_22_">
						<use xlink:href="#SVGID_21_"  overflow="visible"/>
					</clipPath>
					<g clip-path="url(#SVGID_22_)" enable-background="new    ">
						<path fill="#763D3D" d="M6315.2,4063.4l-5.6,22.5c-16.4-7-24.6-10.5-41.1-17.2l5.6-22.5
							C6290.6,4052.9,6298.8,4056.4,6315.2,4063.4"/>
					</g>
				</g>
			</g>
			<g enable-background="new    ">
				<g>
					<defs>
						<path id="SVGID_23_" d="M6435,4119.6l-5.6,22.5c-16.2-8.2-24.3-12.3-40.5-20.2l5.6-22.5
							C6410.7,4107.3,6418.8,4111.4,6435,4119.6z"/>
					</defs>
					<clipPath id="SVGID_24_">
						<use xlink:href="#SVGID_23_"  overflow="visible"/>
					</clipPath>
					<g clip-path="url(#SVGID_24_)" enable-background="new    ">
						<path fill="#763D3D" d="M6435,4119.6l-5.6,22.5c-16.2-8.2-24.3-12.3-40.5-20.2l5.6-22.5
							C6410.7,4107.3,6418.8,4111.4,6435,4119.6"/>
					</g>
				</g>
			</g>
			<g enable-background="new    ">
				<g>
					<defs>
						<path id="SVGID_25_" d="M6507.3,3891.5l-5.6,22.5c-24.1,76-48.2,152.1-72.3,228.3l5.6-22.5
							C6459.1,4043.6,6483.2,3967.5,6507.3,3891.5z"/>
					</defs>
					<clipPath id="SVGID_26_">
						<use xlink:href="#SVGID_25_"  overflow="visible"/>
					</clipPath>
					<g clip-path="url(#SVGID_26_)" enable-background="new    ">
						<path fill="#7F4242" d="M6507.3,3891.5l-5.6,22.5c-24.1,76-48.2,152.1-72.3,228.3l5.6-22.5
							C6459.1,4043.6,6483.2,3967.5,6507.3,3891.5"/>
					</g>
				</g>
			</g>
			<g>
				<path fill="#D16D6D" d="M6331.9,3811.5c14.9,6.1,30,12.3,44.7,18.7c-8.2,31.1-16.4,62.3-24.6,93.3c28,12.1,55.7,24.9,83.4,38
					c9.2-30.6,18.4-61.3,27.4-91.9c14.8,7,29.5,14.4,44.1,22c-24.1,76-48.2,152.1-72.3,228.3c-16.2-8.2-24.3-12.3-40.5-20.2
					c9.3-31.5,18.7-62.9,28.2-94.2c-27.2-12.9-54.6-25.4-82.1-37.4c-8.4,32-16.9,63.8-25.2,95.7c-16.4-7-24.6-10.5-41.1-17.2
					C6293.4,3968,6312.7,3889.8,6331.9,3811.5z"/>
			</g>
		</g>
		<g enable-background="new    ">
			<g>
				<path fill="#D16D6D" d="M5901.4,3961.3c3,0.5,5.7,1,8.4,1.6C5906.9,3962.3,5904.1,3961.8,5901.4,3961.3z"/>
			</g>
			<g enable-background="new    ">
				<g>
					<defs>
						<path id="SVGID_27_" d="M5880.7,3759.4l-5.6,22.5c1.5-17.2-8.9-28.2-26.2-30.6c-18.5-2.6-37-5.1-55.7-7.4l5.6-22.5
							c18.5,2.3,37.2,4.8,55.7,7.4C5871.9,3731.2,5882.2,3742.2,5880.7,3759.4z"/>
					</defs>
					<clipPath id="SVGID_28_">
						<use xlink:href="#SVGID_27_"  overflow="visible"/>
					</clipPath>
					<g clip-path="url(#SVGID_28_)" enable-background="new    ">
						<path fill="#763D3D" d="M5880.7,3759.4l-5.6,22.5c1.5-17.2-8.9-28.2-26.2-30.6c-18.5-2.6-37-5.1-55.7-7.4l5.6-22.5
							c18.5,2.3,37.2,4.8,55.7,7.4C5871.9,3731.2,5882.2,3742.2,5880.7,3759.4"/>
					</g>
				</g>
			</g>
			<g enable-background="new    ">
				<g>
					<defs>
						<path id="SVGID_29_" d="M5879.9,3764.6c-1.8,7.5-3.8,14.9-5.6,22.5c0.3-1.6,0.7-3.3,0.8-5.2l5.6-22.5
							C5880.5,3761.2,5880.2,3763,5879.9,3764.6z"/>
					</defs>
					<clipPath id="SVGID_30_">
						<use xlink:href="#SVGID_29_"  overflow="visible"/>
					</clipPath>
					<g clip-path="url(#SVGID_30_)" enable-background="new    ">
						<path fill="#763D3D" d="M5879.9,3764.6l-5.6,22.5c0.3-1.6,0.7-3.3,0.8-5.2l5.6-22.5C5880.5,3761.2,5880.2,3763,5879.9,3764.6"
							/>
					</g>
				</g>
			</g>
			<g enable-background="new    ">
				<g>
					<defs>
						<path id="SVGID_31_" d="M5923.7,3778.7c-1.8,7.5-3.8,14.9-5.6,22.5c-7.2,29.2-29,47-54.6,48.8l5.6-22.5
							C5894.6,3825.8,5916.4,3807.9,5923.7,3778.7z"/>
					</defs>
					<clipPath id="SVGID_32_">
						<use xlink:href="#SVGID_31_"  overflow="visible"/>
					</clipPath>
					<g clip-path="url(#SVGID_32_)" enable-background="new    ">
						<path fill="#7F4242" d="M5923.7,3778.7l-5.6,22.5c-0.7,2.8-1.5,5.4-2.5,8l5.6-22.5C5922.2,3784.1,5923,3781.5,5923.7,3778.7"
							/>
						<path fill="#7A4040" d="M5921.2,3786.8l-5.6,22.5c-2.9,8-7.2,15.1-12.3,21l5.6-22.5C5914,3801.8,5918.2,3794.8,5921.2,3786.8"
							/>
						<path fill="#763D3D" d="M5908.9,3807.7l-5.6,22.5c-10.3,11.8-24.3,18.7-39.8,19.8l5.6-22.5
							C5884.6,3826.4,5898.7,3819.5,5908.9,3807.7"/>
					</g>
				</g>
			</g>
			<g enable-background="new    ">
				<g>
					<defs>
						<path id="SVGID_33_" d="M6039.4,3872.1l-5.6,22.5c-4.6-28.4-9.5-56.7-14.4-84.9l5.6-22.5
							C6030,3815.6,6034.8,3843.8,6039.4,3872.1z"/>
					</defs>
					<clipPath id="SVGID_34_">
						<use xlink:href="#SVGID_33_"  overflow="visible"/>
					</clipPath>
					<g clip-path="url(#SVGID_34_)" enable-background="new    ">
						<path fill="#763D3D" d="M6039.4,3872.1l-5.6,22.5c-4.6-28.4-9.5-56.7-14.4-84.9l5.6-22.5
							C6030,3815.6,6034.8,3843.8,6039.4,3872.1"/>
					</g>
				</g>
			</g>
			<g enable-background="new    ">
				<g>
					<defs>
						<path id="SVGID_35_" d="M6024.9,3787.3l-5.6,22.5c-12.3,24.1-24.3,48.3-36.2,72.8l5.6-22.5
							C6000.7,3835.6,6012.6,3811.3,6024.9,3787.3z"/>
					</defs>
					<clipPath id="SVGID_36_">
						<use xlink:href="#SVGID_35_"  overflow="visible"/>
					</clipPath>
					<g clip-path="url(#SVGID_36_)" enable-background="new    ">
						<path fill="#7A4040" d="M6024.9,3787.3l-5.6,22.5c-12.3,24.1-24.3,48.3-36.2,72.8l5.6-22.5
							C6000.7,3835.6,6012.6,3811.3,6024.9,3787.3"/>
					</g>
				</g>
			</g>
			<g enable-background="new    ">
				<g>
					<defs>
						<path id="SVGID_37_" d="M5820.1,3822.8l-5.6,22.5c-10.8-1.5-16.2-2.1-26.9-3.4l5.6-22.5
							C5804,3820.7,5809.3,3821.3,5820.1,3822.8z"/>
					</defs>
					<clipPath id="SVGID_38_">
						<use xlink:href="#SVGID_37_"  overflow="visible"/>
					</clipPath>
					<g clip-path="url(#SVGID_38_)" enable-background="new    ">
						<path fill="#763D3D" d="M5820.1,3822.8l-5.6,22.5c-10.8-1.5-16.2-2.1-26.9-3.4l5.6-22.5
							C5804,3820.7,5809.3,3821.3,5820.1,3822.8"/>
					</g>
				</g>
			</g>
			<g enable-background="new    ">
				<g>
					<defs>
						<path id="SVGID_39_" d="M6047.7,3919.8l-5.6,22.5c-26.4-6.9-52.8-13.3-79.3-19l5.6-22.5
							C5994.8,3906.7,6021.3,3913,6047.7,3919.8z"/>
					</defs>
					<clipPath id="SVGID_40_">
						<use xlink:href="#SVGID_39_"  overflow="visible"/>
					</clipPath>
					<g clip-path="url(#SVGID_40_)" enable-background="new    ">
						<path fill="#763D3D" d="M6047.7,3919.8l-5.6,22.5c-26.4-6.9-52.8-13.3-79.3-19l5.6-22.5
							C5994.8,3906.7,6021.3,3913,6047.7,3919.8"/>
					</g>
				</g>
			</g>
			<g enable-background="new    ">
				<g>
					<defs>
						<path id="SVGID_41_" d="M5903.2,3946.2c0,0,0,0.2-0.2,0.2c1.8-7.5,3.8-14.9,5.6-22.5c0,0,0-0.2,0.2-0.2
							C5907.1,3930.7,5905.5,3939.7,5903.2,3946.2z"/>
					</defs>
					<clipPath id="SVGID_42_">
						<use xlink:href="#SVGID_41_"  overflow="visible"/>
					</clipPath>
					<g clip-path="url(#SVGID_42_)" enable-background="new    ">
						<path fill="#7A4040" d="M5908.9,3923.9l-5.6,22.5c-2.1,4.8-4.3,9.3-6.4,14.1l5.6-22.5
							C5904.5,3933.3,5906.8,3928.5,5908.9,3923.9"/>
					</g>
				</g>
			</g>
			<g enable-background="new    ">
				<g>
					<defs>
						<path id="SVGID_43_" d="M6055.9,3972.8l-5.6,22.5c-3.1-21.1-4.8-31.8-8.2-52.9l5.6-22.5
							C6051,3941.1,6052.6,3951.6,6055.9,3972.8z"/>
					</defs>
					<clipPath id="SVGID_44_">
						<use xlink:href="#SVGID_43_"  overflow="visible"/>
					</clipPath>
					<g clip-path="url(#SVGID_44_)" enable-background="new    ">
						<path fill="#763D3D" d="M6055.9,3972.8l-5.6,22.5c-3.1-21.1-4.8-31.8-8.2-52.9l5.6-22.5
							C6051,3941.1,6052.6,3951.6,6055.9,3972.8"/>
					</g>
				</g>
			</g>
			<g enable-background="new    ">
				<g>
					<defs>
						<path id="SVGID_45_" d="M5968.4,3901l-5.6,22.5c-8.8,18.2-13.1,27.4-21.8,45.7l5.6-22.5
							C5955.1,3928.2,5959.5,3919.2,5968.4,3901z"/>
					</defs>
					<clipPath id="SVGID_46_">
						<use xlink:href="#SVGID_45_"  overflow="visible"/>
					</clipPath>
					<g clip-path="url(#SVGID_46_)" enable-background="new    ">
						<path fill="#7A4040" d="M5968.4,3901l-5.6,22.5c-8.8,18.2-13.1,27.4-21.8,45.7l5.6-22.5
							C5955.1,3928.2,5959.5,3919.2,5968.4,3901"/>
					</g>
				</g>
			</g>
			<g enable-background="new    ">
				<g>
					<defs>
						<path id="SVGID_47_" d="M6099.7,3985.2l-5.6,22.5c-17.5-5.2-26.2-7.7-43.8-12.5l5.6-22.5
							C6073.4,3977.5,6082.1,3980,6099.7,3985.2z"/>
					</defs>
					<clipPath id="SVGID_48_">
						<use xlink:href="#SVGID_47_"  overflow="visible"/>
					</clipPath>
					<g clip-path="url(#SVGID_48_)" enable-background="new    ">
						<path fill="#763D3D" d="M6099.7,3985.2l-5.6,22.5c-17.5-5.2-26.2-7.7-43.8-12.5l5.6-22.5
							C6073.4,3977.5,6082.1,3980,6099.7,3985.2"/>
					</g>
				</g>
			</g>
			<g enable-background="new    ">
				<g>
					<defs>
						<path id="SVGID_49_" d="M5903.2,3946.5c-2,4.3-3.9,8.5-5.7,12.8c1.8-7.5,3.8-14.9,5.6-22.5c2-4.3,3.9-8.5,5.9-12.8
							c-0.7,2.3-1.1,4.8-1.8,7c-0.7,2.3-1.1,4.8-1.8,7c-0.2,0.5-0.2,1-0.3,1.5c-0.3,1.5-0.7,2.8-1,4.3
							C5903.7,3944.6,5903.5,3945.7,5903.2,3946.5z"/>
					</defs>
					<clipPath id="SVGID_50_">
						<use xlink:href="#SVGID_49_"  overflow="visible"/>
					</clipPath>
					<g clip-path="url(#SVGID_50_)" enable-background="new    ">
						<path fill="#7A4040" d="M5908.9,3923.9l-5.6,22.5c-2.1,4.8-4.3,9.3-6.4,14.1l5.6-22.5
							C5904.5,3933.3,5906.8,3928.5,5908.9,3923.9"/>
					</g>
				</g>
			</g>
			<g enable-background="new    ">
				<g>
					<defs>
						<path id="SVGID_51_" d="M5946.6,3946.5l-5.6,22.5c-12.8-2.6-21-4.3-31.1-6.2c-2.6-0.5-5.4-1-8.4-1.6c-1.5-0.3-3-0.5-4.6-0.8
							l5.6-22.5c1.6,0.3,3.1,0.5,4.6,0.8c2.9,0.5,5.7,1,8.4,1.6C5925.6,3942.3,5933.8,3943.9,5946.6,3946.5z"/>
					</defs>
					<clipPath id="SVGID_52_">
						<use xlink:href="#SVGID_51_"  overflow="visible"/>
					</clipPath>
					<g clip-path="url(#SVGID_52_)" enable-background="new    ">
						<path fill="#763D3D" d="M5946.6,3946.5l-5.6,22.5c-12.8-2.6-21-4.3-31.1-6.2c-2.6-0.5-5.4-1-8.4-1.6c-1.5-0.3-3-0.5-4.6-0.8
							l5.6-22.5c1.6,0.3,3.1,0.5,4.6,0.8c2.9,0.5,5.7,1,8.4,1.6C5925.6,3942.3,5933.8,3943.9,5946.6,3946.5"/>
					</g>
				</g>
			</g>
			<g enable-background="new    ">
				<g>
					<defs>
						<path id="SVGID_53_" d="M5915.3,3940.3l-5.6,22.5c-2.6-0.5-5.4-1-8.4-1.6l5.6-22.5C5910,3939.3,5912.7,3939.8,5915.3,3940.3z"
							/>
					</defs>
					<clipPath id="SVGID_54_">
						<use xlink:href="#SVGID_53_"  overflow="visible"/>
					</clipPath>
					<g clip-path="url(#SVGID_54_)" enable-background="new    ">
						<path fill="#763D3D" d="M5915.3,3940.3l-5.6,22.5c-2.6-0.5-5.4-1-8.4-1.6l5.6-22.5C5910,3939.3,5912.7,3939.8,5915.3,3940.3"
							/>
					</g>
				</g>
			</g>
			<g>
				<path fill="#D16D6D" d="M6056.6,3721.5c16.4,87.5,30.8,175.2,43.1,263.7c-17.5-5.2-26.2-7.7-43.8-12.5
					c-3.1-21.1-4.8-31.8-8.2-52.9c-26.4-6.9-52.8-13.3-79.3-19c-8.8,18.2-13.1,27.4-21.8,45.7c-12.8-2.6-21-4.3-31.1-6.2
					c-2.6-0.5-5.4-1-8.4-1.6c-1.5-0.3-3-0.5-4.6-0.8c2.1-4.8,4.3-9.3,6.4-14.1c32.9-72.3,67.7-143.1,103.9-212.7
					C6030.3,3715.1,6039.2,3717.3,6056.6,3721.5z M5988.7,3860c16.9,3.8,33.8,7.9,50.6,12.1c-4.6-28.4-9.5-56.7-14.4-84.9
					C6012.6,3811.3,6000.7,3835.6,5988.7,3860"/>
			</g>
			<g enable-background="new    ">
				<g>
					<defs>
						<path id="SVGID_55_" d="M5866.8,3931.8l-5.6,22.5c-14.9-36.7-30.6-72.9-46.7-109l5.6-22.5
							C5836.1,3858.9,5851.7,3895.1,5866.8,3931.8z"/>
					</defs>
					<clipPath id="SVGID_56_">
						<use xlink:href="#SVGID_55_"  overflow="visible"/>
					</clipPath>
					<g clip-path="url(#SVGID_56_)" enable-background="new    ">
						<path fill="#763D3D" d="M5866.8,3931.8l-5.6,22.5c-14.9-36.7-30.6-72.9-46.7-109l5.6-22.5
							C5836.1,3858.9,5851.7,3895.1,5866.8,3931.8"/>
					</g>
				</g>
			</g>
			<g enable-background="new    ">
				<g>
					<defs>
						<path id="SVGID_57_" d="M5902.3,3938l-5.6,22.5c-12-2.1-23.8-4.3-35.7-6.2l5.6-22.5C5878.6,3933.8,5890.5,3935.7,5902.3,3938z
							"/>
					</defs>
					<clipPath id="SVGID_58_">
						<use xlink:href="#SVGID_57_"  overflow="visible"/>
					</clipPath>
					<g clip-path="url(#SVGID_58_)" enable-background="new    ">
						<path fill="#763D3D" d="M5902.3,3938l-5.6,22.5c-12-2.1-23.8-4.3-35.7-6.2l5.6-22.5C5878.6,3933.8,5890.5,3935.7,5902.3,3938"
							/>
					</g>
				</g>
			</g>
			<g enable-background="new    ">
				<g>
					<defs>
						<path id="SVGID_59_" d="M5744.9,3916.1l-5.6,22.5c3.4-82.1,7-164.4,10.5-246.5l5.6-22.5
							C5751.7,3751.9,5748.3,3834,5744.9,3916.1z"/>
					</defs>
					<clipPath id="SVGID_60_">
						<use xlink:href="#SVGID_59_"  overflow="visible"/>
					</clipPath>
					<g clip-path="url(#SVGID_60_)" enable-background="new    ">
						<path fill="#763D3D" d="M5744.9,3916.1l-5.6,22.5c3.4-82.1,7-164.4,10.5-246.5l5.6-22.5
							C5751.7,3751.9,5748.3,3834,5744.9,3916.1"/>
					</g>
				</g>
			</g>
			<g enable-background="new    ">
				<g>
					<defs>
						<path id="SVGID_61_" d="M5787.3,3920.7l-5.6,22.5c-17-2-25.4-2.9-42.4-4.6l5.6-22.5
							C5761.9,3917.7,5770.3,3918.7,5787.3,3920.7z"/>
					</defs>
					<clipPath id="SVGID_62_">
						<use xlink:href="#SVGID_61_"  overflow="visible"/>
					</clipPath>
					<g clip-path="url(#SVGID_62_)" enable-background="new    ">
						<path fill="#763D3D" d="M5787.3,3920.7l-5.6,22.5c-17-2-25.4-2.9-42.4-4.6l5.6-22.5
							C5761.9,3917.7,5770.3,3918.7,5787.3,3920.7"/>
					</g>
				</g>
			</g>
			<g>
				<path fill="#D16D6D" d="M5857.1,3681.9c36.5,4.8,73.9,33.8,68.7,84.6c-3.8,36.4-27.7,59-56.5,61c13.6,32,26.9,64.1,39.7,96.4
					c-2.1,4.8-4.3,9.3-6.4,14.1c-12-2.1-23.8-4.3-35.7-6.2c-14.9-36.7-30.6-72.9-46.7-109c-10.8-1.5-16.2-2.1-26.9-3.4
					c-2,33.8-3.9,67.5-5.9,101.3c-17-2-25.4-2.9-42.4-4.6c3.4-82.1,7-164.4,10.5-246.5C5789.3,3673,5823.2,3677.1,5857.1,3681.9z
					 M5880.7,3759.4c1.5-17.2-8.8-28.2-26.2-30.6c-18.5-2.6-37-5.1-55.7-7.4c-1.1,21-1.8,31.5-3.1,52.4c18.2,2.3,36.5,4.6,54.7,7.2
					c1.3,0.2,2.5,0.3,3.6,0.3C5869.2,3782.3,5879.4,3775,5880.7,3759.4"/>
			</g>
		</g>
		<g enable-background="new    ">
			<g enable-background="new    ">
				<g>
					<defs>
						<path id="SVGID_63_" d="M5733.9,3745.8l-5.6,22.5c-13.9-1.1-22.5-1.8-33.9-2.6c-3.4-0.2-7.2-0.5-11.5-0.7l5.6-22.5
							c4.3,0.3,8,0.5,11.5,0.7C5711.3,3744,5719.9,3744.6,5733.9,3745.8z"/>
					</defs>
					<clipPath id="SVGID_64_">
						<use xlink:href="#SVGID_63_"  overflow="visible"/>
					</clipPath>
					<g clip-path="url(#SVGID_64_)" enable-background="new    ">
						<path fill="#763D3D" d="M5733.9,3745.8l-5.6,22.5c-13.9-1.1-22.5-1.8-33.9-2.6c-3.4-0.2-7.2-0.5-11.5-0.7l5.6-22.5
							c4.3,0.3,8,0.5,11.5,0.7C5711.3,3744,5719.9,3744.6,5733.9,3745.8"/>
					</g>
				</g>
			</g>
			<g enable-background="new    ">
				<g>
					<defs>
						<path id="SVGID_65_" d="M5597.4,3758.7l5.6-22.5c5.2-21.1,24.7-31.1,42.4-30.5c0.5,0,0.8,0,1.3,0
							c17.9,1.1,37.5,12.8,41.6,36.7l-5.6,22.5c-4.1-23.9-23.8-35.6-41.6-36.7c-0.5,0-0.8,0-1.3,0
							C5622.1,3727.6,5602.6,3737.6,5597.4,3758.7z"/>
					</defs>
					<clipPath id="SVGID_66_">
						<use xlink:href="#SVGID_65_"  overflow="visible"/>
					</clipPath>
					<g clip-path="url(#SVGID_66_)" enable-background="new    ">
						<path fill="#763D3D" d="M5688.3,3742.5l-5.6,22.5c-4.1-23.9-23.8-35.6-41.6-36.7c-0.5,0-0.8,0-1.3,0
							c-12.3-0.5-25.4,4.3-34.1,14.1l5.6-22.5c8.7-9.8,21.8-14.6,34.1-14.1c0.5,0,0.8,0,1.3,0
							C5664.7,3706.9,5684.2,3718.6,5688.3,3742.5"/>
						<path fill="#7A4040" d="M5611.4,3719.9l-5.6,22.5c-3,3.4-5.4,7.4-7.2,12.1l5.6-22.5C5606,3727.3,5608.5,3723.3,5611.4,3719.9"
							/>
						<path fill="#7F4242" d="M5604.2,3732l-5.6,22.5c-0.5,1.3-1,2.8-1.3,4.3l5.6-22.5C5603.3,3734.8,5603.7,3733.3,5604.2,3732"/>
					</g>
				</g>
			</g>
			<g enable-background="new    ">
				<g>
					<defs>
						<path id="SVGID_67_" d="M5644.9,3815.1l-5.6,22.5c0.2-18.8,0.2-28.2,0.3-46.9l5.6-22.5
							C5645,3787.1,5644.9,3796.4,5644.9,3815.1z"/>
					</defs>
					<clipPath id="SVGID_68_">
						<use xlink:href="#SVGID_67_"  overflow="visible"/>
					</clipPath>
					<g clip-path="url(#SVGID_68_)" enable-background="new    ">
						<path fill="#763D3D" d="M5644.9,3815.1l-5.6,22.5c0.2-18.8,0.2-28.2,0.3-46.9l5.6-22.5
							C5645,3787.1,5644.9,3796.4,5644.9,3815.1"/>
					</g>
				</g>
			</g>
			<g enable-background="new    ">
				<g>
					<defs>
						<path id="SVGID_69_" d="M5687.5,3817.4l-5.6,22.5c-17-1-25.6-1.5-42.6-2.1l5.6-22.5
							C5661.9,3815.8,5670.4,3816.3,5687.5,3817.4z"/>
					</defs>
					<clipPath id="SVGID_70_">
						<use xlink:href="#SVGID_69_"  overflow="visible"/>
					</clipPath>
					<g clip-path="url(#SVGID_70_)" enable-background="new    ">
						<path fill="#763D3D" d="M5687.5,3817.4l-5.6,22.5c-17-1-25.6-1.5-42.6-2.1l5.6-22.5
							C5661.9,3815.8,5670.4,3816.3,5687.5,3817.4"/>
					</g>
				</g>
			</g>
			<g enable-background="new    ">
				<g>
					<defs>
						<path id="SVGID_71_" d="M5685.9,3835.4c-1.8,7-3.6,14.3-5.2,21.3c-0.2,0.3-0.2,0.8-0.3,1.1c0.8-3.6,1.5-7.5,1.5-11.6
							c0-2.5,0.2-3.8,0.2-6.4l5.6-22.5c0,2.5-0.2,3.8-0.2,6.4C5687.3,3827.9,5686.8,3831.8,5685.9,3835.4z"/>
					</defs>
					<clipPath id="SVGID_72_">
						<use xlink:href="#SVGID_71_"  overflow="visible"/>
					</clipPath>
					<g clip-path="url(#SVGID_72_)" enable-background="new    ">
						<path fill="#763D3D" d="M5685.9,3835.4l-5.6,22.5c0.8-3.6,1.5-7.5,1.5-11.6c0-2.5,0.2-3.8,0.2-6.4l5.6-22.5
							c0,2.5-0.2,3.8-0.2,6.4C5687.3,3827.9,5686.8,3831.8,5685.9,3835.4"/>
					</g>
				</g>
			</g>
			<g enable-background="new    ">
				<g>
					<defs>
						<path id="SVGID_73_" d="M5502.1,3836.3c-1.8,7.5-3.8,14.9-5.6,22.5c1.1-4.4,1.6-9.5,1.3-14.7c-1-23.8-2.1-47.5-3.1-71.3
							c-1-27.2-21-41-40.5-42.3c-2-0.2-3.8-0.2-5.7,0c-17,1-34.7,12-39.7,31.8c1.8-7.5,3.8-14.9,5.6-22.5
							c4.9-19.8,22.8-30.8,39.7-31.8c1.8-0.2,3.8-0.2,5.7,0c19.5,1.3,39.5,15.1,40.5,42.3c1,23.8,2.1,47.5,3.1,71.3
							C5503.8,3826.7,5503.3,3831.7,5502.1,3836.3z"/>
					</defs>
					<clipPath id="SVGID_74_">
						<use xlink:href="#SVGID_73_"  overflow="visible"/>
					</clipPath>
					<g clip-path="url(#SVGID_74_)" enable-background="new    ">
						<path fill="#763D3D" d="M5502.1,3836.3l-5.6,22.5c1.1-4.4,1.6-9.5,1.3-14.7c-1-23.8-2.1-47.5-3.1-71.3
							c-1-27.2-21-41-40.5-42.3c-2-0.2-3.8-0.2-5.7,0c-11.3,0.7-22.9,5.7-31,14.9l5.6-22.5c8-9.2,19.7-14.3,31-14.9
							c1.8-0.2,3.8-0.2,5.7,0c19.5,1.3,39.5,15.1,40.5,42.3c1,23.8,2.1,47.5,3.1,71.3C5503.8,3826.7,5503.3,3831.7,5502.1,3836.3"/>
						<path fill="#7A4040" d="M5423.1,3722.7l-5.6,22.5c-3.1,3.6-5.7,7.7-7.4,12.6l5.6-22.5
							C5417.6,3730.5,5420,3726.3,5423.1,3722.7"/>
						<path fill="#7F4242" d="M5415.8,3735.3l-5.6,22.5c-0.5,1.5-1,2.8-1.3,4.3l5.6-22.5C5414.8,3738.1,5415.3,3736.6,5415.8,3735.3
							"/>
					</g>
				</g>
			</g>
			<g enable-background="new    ">
				<g>
					<defs>
						<path id="SVGID_75_" d="M5313.3,3838.4l-5.6,22.5c-5.9-52.8-11.8-105.5-17.5-158.3l5.6-22.5
							C5301.7,3732.8,5307.6,3785.6,5313.3,3838.4z"/>
					</defs>
					<clipPath id="SVGID_76_">
						<use xlink:href="#SVGID_75_"  overflow="visible"/>
					</clipPath>
					<g clip-path="url(#SVGID_76_)" enable-background="new    ">
						<path fill="#763D3D" d="M5313.3,3838.4l-5.6,22.5c-5.9-52.8-11.8-105.5-17.5-158.3l5.6-22.5
							C5301.7,3732.8,5307.6,3785.6,5313.3,3838.4"/>
					</g>
				</g>
			</g>
			<g enable-background="new    ">
				<g>
					<defs>
						<path id="SVGID_77_" d="M5728,3850.7c-1.8,7.5-3.8,14.9-5.6,22.5c-10.7,42.8-46.2,63.8-83.7,62.3c-0.8,0-1.6,0-2.5-0.2
							c-42.9-2.8-82.3-34.7-83.4-92.6c-0.7-23.8-1.1-47.5-1.8-71.3c-0.3-10.7,0.7-20.2,3-29l5.6-22.5c-2.1,8.7-3.3,18.4-3,29
							c0.7,23.8,1.1,47.5,1.8,71.3c1.1,57.9,40.3,89.8,83.4,92.6c0.8,0,1.6,0.2,2.5,0.2C5681.8,3914.4,5717.3,3893.4,5728,3850.7z"
							/>
					</defs>
					<clipPath id="SVGID_78_">
						<use xlink:href="#SVGID_77_"  overflow="visible"/>
					</clipPath>
					<g clip-path="url(#SVGID_78_)" enable-background="new    ">
						<path fill="#7F4242" d="M5728,3850.7l-5.6,22.5c-0.8,3.4-1.8,6.7-3,9.8l5.6-22.5C5726.2,3857.2,5727.2,3854.1,5728,3850.7"/>
						<path fill="#7A4040" d="M5725,3860.3l-5.6,22.5c-3.6,10-8.8,18.5-15.1,25.6l5.6-22.5C5716.2,3878.9,5721.4,3870.3,5725,3860.3
							"/>
						<path fill="#763D3D" d="M5709.9,3886.1l-5.6,22.5c-16.6,18.8-40.6,27.9-65.7,26.9c-0.8,0-1.6,0-2.5-0.2
							c-42.9-2.8-82.3-34.7-83.4-92.6c-0.7-23.8-1.1-47.5-1.8-71.3c-0.3-10.7,0.7-20.2,3-29l5.6-22.5c-2.1,8.7-3.3,18.4-3,29
							c0.7,23.8,1.1,47.5,1.8,71.3c1.1,57.9,40.3,89.8,83.4,92.6c0.8,0,1.6,0.2,2.5,0.2C5669.3,3913.9,5693.6,3904.9,5709.9,3886.1"
							/>
					</g>
				</g>
			</g>
			<g>
				<path fill="#D16D6D" d="M5648.5,3658.9c40.8,2.6,83.4,30.3,85.4,86.9c-13.9-1.1-22.5-1.8-33.9-2.6c-3.4-0.2-7.2-0.5-11.5-0.7
					c-4.1-23.9-23.8-35.6-41.6-36.7c-0.5,0-0.8,0-1.3,0c-21.1-0.8-44.4,13.4-43.9,43.3c0.2,23.8,0.5,47.5,0.7,71.3
					c0,28.2,20.6,44.2,41.1,45.6c0.3,0,0.8,0,1.1,0c20.8,0.8,42.4-13.6,42.8-42.3c0-2.5,0.2-3.8,0.2-6.4c-17-1-25.6-1.5-42.6-2.1
					c0.2-18.8,0.2-28.2,0.3-46.9c17.5,0.8,35.1,1.6,52.6,2.8c11.8,0.8,23.6,1.6,35.6,2.6c-0.8,21.3-1.1,32-2,53.3
					c-1.8,58.8-42.9,87.7-87,86c-0.8,0-1.6,0-2.5-0.2c-42.9-2.8-82.3-34.7-83.4-92.6c-0.7-23.8-1.1-47.5-1.8-71.3
					c-2-62.8,43.9-91.8,89.2-90C5646.7,3658.9,5647.5,3658.9,5648.5,3658.9z"/>
			</g>
			<g enable-background="new    ">
				<g>
					<defs>
						<path id="SVGID_79_" d="M5148.3,3754.5l-5.6,22.5c-32.6,7.4-65.1,15.6-97.3,24.4l5.6-22.5
							C5083.4,3770,5115.7,3762,5148.3,3754.5z"/>
					</defs>
					<clipPath id="SVGID_80_">
						<use xlink:href="#SVGID_79_"  overflow="visible"/>
					</clipPath>
					<g clip-path="url(#SVGID_80_)" enable-background="new    ">
						<path fill="#763D3D" d="M5148.3,3754.5l-5.6,22.5c-32.6,7.4-65.1,15.6-97.3,24.4l5.6-22.5
							C5083.4,3770,5115.7,3762,5148.3,3754.5"/>
					</g>
				</g>
			</g>
			<g enable-background="new    ">
				<g>
					<defs>
						<path id="SVGID_81_" d="M5544.3,3850.8c-1.8,7.5-3.8,14.9-5.6,22.5c-9.8,39.8-42.3,61.9-77.8,64.1c-3.9,0.2-7.9,0.2-11.6,0
							c-39.5-2.6-75.2-30.6-79.8-84.1c-2.1-23.8-4.3-47.4-6.4-71.1c-1.3-12.9-0.3-24.6,2.3-35.1c1.8-7.5,3.8-14.9,5.6-22.5
							c-2.6,10.5-3.4,22.1-2.3,35.1c2.1,23.6,4.3,47.4,6.4,71.1c4.6,53.6,40.3,81.6,79.8,84.1c3.9,0.3,7.7,0.3,11.6,0
							C5502,3912.8,5534.4,3890.7,5544.3,3850.8z"/>
					</defs>
					<clipPath id="SVGID_82_">
						<use xlink:href="#SVGID_81_"  overflow="visible"/>
					</clipPath>
					<g clip-path="url(#SVGID_82_)" enable-background="new    ">
						<path fill="#7F4242" d="M5544.3,3850.8l-5.6,22.5c-0.8,3.3-1.8,6.6-3,9.7l5.6-22.5C5542.5,3857.4,5543.4,3854.1,5544.3,3850.8
							"/>
						<path fill="#7A4040" d="M5541.3,3860.5l-5.6,22.5c-3.8,10-9,18.7-15.4,26.1l5.6-22.5
							C5532.3,3879.2,5537.5,3870.5,5541.3,3860.5"/>
						<path fill="#763D3D" d="M5525.9,3886.6l-5.6,22.5c-15.1,17.4-36.7,27-59.7,28.4c-3.9,0.2-7.9,0.2-11.6,0
							c-39.5-2.6-75.2-30.6-79.8-84.1c-2.1-23.8-4.3-47.4-6.4-71.1c-1.3-12.9-0.3-24.6,2.3-35.1l5.6-22.5
							c-2.6,10.5-3.4,22.1-2.3,35.1c2.1,23.6,4.3,47.4,6.4,71.1c4.6,53.6,40.3,81.6,79.8,84.1c3.9,0.3,7.7,0.3,11.6,0
							C5489.2,3913.4,5510.8,3903.8,5525.9,3886.6"/>
					</g>
				</g>
			</g>
			<g>
				<path fill="#D16D6D" d="M5547.2,3820.4c2,59-37,91.9-81,94.6c-3.9,0.2-7.9,0.2-11.6,0c-39.5-2.6-75.2-30.6-79.8-84.1
					c-2.1-23.8-4.3-47.4-6.4-71.1c-5.9-62.4,37.7-96,82.9-98.7c4.1-0.3,8.4-0.2,12.5,0c41,2.6,80.1,31,81.5,88
					C5545.9,3772.8,5546.5,3796.6,5547.2,3820.4z M5463.6,3867.9c20.8-1.3,41.5-17.9,39.8-46.5c-1-23.8-2.1-47.5-3.1-71.3
					c-1-27.2-21-41-40.5-42.3c-2-0.2-3.8-0.2-5.7,0c-21.1,1.3-43.4,17.9-40.8,47.5c1.8,23.8,3.4,47.5,5.2,71.1
					c1.6,26.2,20.5,40.2,39.7,41.5C5460,3868,5461.8,3868,5463.6,3867.9"/>
			</g>
			<g enable-background="new    ">
				<g>
					<defs>
						<path id="SVGID_83_" d="M5323.2,3925.7l-5.6,22.5c-33.6-49.2-68.2-97.2-103.9-144.1l5.6-22.5
							C5254.8,3828.6,5289.6,3876.6,5323.2,3925.7z"/>
					</defs>
					<clipPath id="SVGID_84_">
						<use xlink:href="#SVGID_83_"  overflow="visible"/>
					</clipPath>
					<g clip-path="url(#SVGID_84_)" enable-background="new    ">
						<path fill="#763D3D" d="M5323.2,3925.7l-5.6,22.5c-33.6-49.2-68.2-97.2-103.9-144.1l5.6-22.5
							C5254.8,3828.6,5289.6,3876.6,5323.2,3925.7"/>
					</g>
				</g>
			</g>
			<g enable-background="new    ">
				<g>
					<defs>
						<path id="SVGID_85_" d="M5365.3,3920.2l-5.6,22.5c-16.9,2-25.4,3.1-42.3,5.4l5.6-22.5
							C5340.1,3923.3,5348.4,3922.3,5365.3,3920.2z"/>
					</defs>
					<clipPath id="SVGID_86_">
						<use xlink:href="#SVGID_85_"  overflow="visible"/>
					</clipPath>
					<g clip-path="url(#SVGID_86_)" enable-background="new    ">
						<path fill="#763D3D" d="M5365.3,3920.2l-5.6,22.5c-16.9,2-25.4,3.1-42.3,5.4l5.6-22.5
							C5340.1,3923.3,5348.4,3922.3,5365.3,3920.2"/>
					</g>
				</g>
			</g>
			<g enable-background="new    ">
				<g>
					<defs>
						<path id="SVGID_87_" d="M5164.4,3851.8l-5.6,22.5c-31.5,7-62.9,14.9-94.1,23.6l5.6-22.5
							C5101.4,3866.7,5132.9,3858.9,5164.4,3851.8z"/>
					</defs>
					<clipPath id="SVGID_88_">
						<use xlink:href="#SVGID_87_"  overflow="visible"/>
					</clipPath>
					<g clip-path="url(#SVGID_88_)" enable-background="new    ">
						<path fill="#763D3D" d="M5164.4,3851.8l-5.6,22.5c-31.5,7-62.9,14.9-94.1,23.6l5.6-22.5
							C5101.4,3866.7,5132.9,3858.9,5164.4,3851.8"/>
					</g>
				</g>
			</g>
			<g enable-background="new    ">
				<g>
					<defs>
						<path id="SVGID_89_" d="M5199.6,3947.5l-5.6,22.5c-12.8-81.3-25.6-162.4-38.3-243.7l5.6-22.5
							C5173.9,3785.1,5186.8,3866.2,5199.6,3947.5z"/>
					</defs>
					<clipPath id="SVGID_90_">
						<use xlink:href="#SVGID_89_"  overflow="visible"/>
					</clipPath>
					<g clip-path="url(#SVGID_90_)" enable-background="new    ">
						<path fill="#763D3D" d="M5199.6,3947.5l-5.6,22.5c-12.8-81.3-25.6-162.4-38.3-243.7l5.6-22.5
							C5173.9,3785.1,5186.8,3866.2,5199.6,3947.5"/>
					</g>
				</g>
			</g>
			<g>
				<path fill="#D16D6D" d="M5341.9,3674.2c7.9,81.9,15.7,164.1,23.6,246c-16.9,2-25.4,3.1-42.3,5.4
					c-33.6-49.2-68.2-97.2-103.9-144.1c7.4,52.4,14.9,105.1,22.3,157.5c-16.7,3.1-25.2,4.8-42,8.4c-12.8-81.3-25.6-162.4-38.3-243.7
					c15.2-3.3,30.5-6.2,45.7-9.2c36.5,46.7,72.1,94.6,106.5,143.6c-5.9-52.8-11.8-105.5-17.5-158.3
					C5311,3677.9,5326.4,3676,5341.9,3674.2z"/>
			</g>
			<g enable-background="new    ">
				<g>
					<defs>
						<path id="SVGID_91_" d="M5241.4,3939.2l-5.6,22.5c-16.7,3.1-25.2,4.8-42,8.4l5.6-22.5
							C5216.3,3943.9,5224.7,3942.3,5241.4,3939.2z"/>
					</defs>
					<clipPath id="SVGID_92_">
						<use xlink:href="#SVGID_91_"  overflow="visible"/>
					</clipPath>
					<g clip-path="url(#SVGID_92_)" enable-background="new    ">
						<path fill="#763D3D" d="M5241.4,3939.2l-5.6,22.5c-16.7,3.1-25.2,4.8-42,8.4l5.6-22.5
							C5216.3,3943.9,5224.7,3942.3,5241.4,3939.2"/>
					</g>
				</g>
			</g>
			<g enable-background="new    ">
				<g>
					<defs>
						<path id="SVGID_93_" d="M4821.4,3857.9l-5.6,22.5c-5.1-17.9-7.7-26.7-12.8-44.6l5.6-22.5
							C4813.6,3831.2,4816.3,3840.2,4821.4,3857.9z"/>
					</defs>
					<clipPath id="SVGID_94_">
						<use xlink:href="#SVGID_93_"  overflow="visible"/>
					</clipPath>
					<g clip-path="url(#SVGID_94_)" enable-background="new    ">
						<path fill="#763D3D" d="M4821.4,3857.9l-5.6,22.5c-5.1-17.9-7.7-26.7-12.8-44.6l5.6-22.5
							C4813.6,3831.2,4816.3,3840.2,4821.4,3857.9"/>
					</g>
				</g>
			</g>
			<g enable-background="new    ">
				<g>
					<defs>
						<path id="SVGID_95_" d="M4934.1,3815.3l-5.6,22.5c-37.9,13.3-75.4,27.5-112.6,42.6l5.6-22.5
							C4858.7,3842.8,4896.2,3828.6,4934.1,3815.3z"/>
					</defs>
					<clipPath id="SVGID_96_">
						<use xlink:href="#SVGID_95_"  overflow="visible"/>
					</clipPath>
					<g clip-path="url(#SVGID_96_)" enable-background="new    ">
						<path fill="#763D3D" d="M4934.1,3815.3l-5.6,22.5c-37.9,13.3-75.4,27.5-112.6,42.6l5.6-22.5
							C4858.7,3842.8,4896.2,3828.6,4934.1,3815.3"/>
					</g>
				</g>
			</g>
			<g enable-background="new    ">
				<g>
					<defs>
						<path id="SVGID_97_" d="M4823.2,3879l-5.6,22.5c-14.7,6.2-29.7,12.5-44.2,19l5.6-22.5
							C4793.5,3891.5,4808.2,3885.1,4823.2,3879z"/>
					</defs>
					<clipPath id="SVGID_98_">
						<use xlink:href="#SVGID_97_"  overflow="visible"/>
					</clipPath>
					<g clip-path="url(#SVGID_98_)" enable-background="new    ">
						<path fill="#763D3D" d="M4823.2,3879l-5.6,22.5c-14.7,6.2-29.7,12.5-44.2,19l5.6-22.5
							C4793.5,3891.5,4808.2,3885.1,4823.2,3879"/>
					</g>
				</g>
			</g>
			<g enable-background="new    ">
				<g>
					<defs>
						<path id="SVGID_99_" d="M5048.7,3986.4l-5.6,22.5c-17.4-80-34.6-160.1-52-240.1l5.6-22.5
							C5014.1,3826.3,5031.3,3906.2,5048.7,3986.4z"/>
					</defs>
					<clipPath id="SVGID_100_">
						<use xlink:href="#SVGID_99_"  overflow="visible"/>
					</clipPath>
					<g clip-path="url(#SVGID_100_)" enable-background="new    ">
						<path fill="#763D3D" d="M5048.7,3986.4l-5.6,22.5c-17.4-80-34.6-160.1-52-240.1l5.6-22.5
							C5014.1,3826.3,5031.3,3906.2,5048.7,3986.4"/>
					</g>
				</g>
			</g>
			<g>
				<path fill="#D16D6D" d="M5140.8,3708.3c3.1,18.5,4.6,27.7,7.5,46.2c-32.6,7.4-65.1,15.6-97.3,24.4c4.1,20.3,6.1,30.5,10.2,50.6
					c31.8-8.8,63.6-16.7,95.7-23.9c3.1,18.5,4.6,27.7,7.5,46.2c-31.5,7-62.9,14.9-94.1,23.6c4.3,21.1,6.4,31.8,10.7,53.1
					c30.6-8.4,61.5-16.1,92.3-23.1c3.1,18.5,4.6,27.7,7.5,46.2c-44.4,10.2-88.3,21.6-132.3,34.7c-17.4-80-34.6-160.1-52-240.1
					C5044.4,3732,5092.4,3719.4,5140.8,3708.3z"/>
			</g>
			<g enable-background="new    ">
				<g>
					<defs>
						<path id="SVGID_101_" d="M5180.8,3951.6l-5.6,22.5c-44.4,10.2-88.3,21.6-132.3,34.7l5.6-22.5
							C5092.4,3973.3,5136.5,3961.8,5180.8,3951.6z"/>
					</defs>
					<clipPath id="SVGID_102_">
						<use xlink:href="#SVGID_101_"  overflow="visible"/>
					</clipPath>
					<g clip-path="url(#SVGID_102_)" enable-background="new    ">
						<path fill="#763D3D" d="M5180.8,3951.6l-5.6,22.5c-44.4,10.2-88.3,21.6-132.3,34.7l5.6-22.5
							C5092.4,3973.3,5136.5,3961.8,5180.8,3951.6"/>
					</g>
				</g>
			</g>
			<g enable-background="new    ">
				<g>
					<defs>
						<path id="SVGID_103_" d="M4708.4,3937.2c1.8-7.5,3.8-14.9,5.6-22.5c2.5-9.8,11.3-18.2,23.8-23.9c6.7-3.1,14.1-4.8,21-4.3
							c8,0.5,15.4,3.9,20,11.5l-5.6,22.5c-4.6-7.5-12-11-20-11.5c-6.9-0.5-14.4,1.3-21,4.3
							C4719.7,3919.2,4710.9,3927.4,4708.4,3937.2z"/>
					</defs>
					<clipPath id="SVGID_104_">
						<use xlink:href="#SVGID_103_"  overflow="visible"/>
					</clipPath>
					<g clip-path="url(#SVGID_104_)" enable-background="new    ">
						<path fill="#763D3D" d="M4778.7,3898l-5.6,22.5c-4.6-7.5-12-11-20-11.5c-6.9-0.5-14.4,1.3-21,4.3c-7.2,3.4-13.3,7.5-17.5,12.5
							l5.6-22.5c4.3-4.9,10.2-9,17.5-12.5c6.7-3.1,14.1-4.8,21-4.3C4766.8,3887.1,4774.2,3890.5,4778.7,3898"/>
						<path fill="#7A4040" d="M4720.2,3903.3l-5.6,22.5c-2.5,2.8-4.3,5.7-5.4,9l5.6-22.5C4716,3909.2,4717.8,3906.1,4720.2,3903.3"
							/>
						<path fill="#7F4242" d="M4714.8,3912.3l-5.6,22.5c-0.3,0.8-0.5,1.6-0.8,2.5l5.6-22.5
							C4714.2,3913.9,4714.5,3913.1,4714.8,3912.3"/>
					</g>
				</g>
			</g>
			<g enable-background="new    ">
				<g>
					<defs>
						<path id="SVGID_105_" d="M4992.6,3796.1l-5.6,22.5c-27,61.1-52.4,123.1-76.2,186.2l5.6-22.5
							C4940.3,3919,4965.6,3857.1,4992.6,3796.1z"/>
					</defs>
					<clipPath id="SVGID_106_">
						<use xlink:href="#SVGID_105_"  overflow="visible"/>
					</clipPath>
					<g clip-path="url(#SVGID_106_)" enable-background="new    ">
						<path fill="#7A4040" d="M4992.6,3796.1l-5.6,22.5c-27,61.1-52.4,123.1-76.2,186.2l5.6-22.5
							C4940.3,3919,4965.6,3857.1,4992.6,3796.1"/>
					</g>
				</g>
			</g>
			<g enable-background="new    ">
				<g>
					<defs>
						<path id="SVGID_107_" d="M4815.8,4014.4c-1.8,7.5-3.8,14.9-5.6,22.5c1-4.1,1-8.5-0.5-13.1c-2.9-9.8-9-14.6-19-15.2
							c-3.3-0.2-6.9,0-10.8,0.7c-15.9,2.5-23.9,3.8-40,6.6l5.6-22.5c16.1-2.8,23.9-4.1,40-6.6c4.1-0.7,7.7-0.8,10.8-0.7
							c10,0.7,16.1,5.4,19,15.2C4816.8,4005.9,4816.9,4010.3,4815.8,4014.4z"/>
					</defs>
					<clipPath id="SVGID_108_">
						<use xlink:href="#SVGID_107_"  overflow="visible"/>
					</clipPath>
					<g clip-path="url(#SVGID_108_)" enable-background="new    ">
						<path fill="#763D3D" d="M4815.8,4014.4l-5.6,22.5c1-4.1,1-8.5-0.5-13.1c-2.9-9.8-9-14.6-19-15.2c-3.3-0.2-6.9,0-10.8,0.7
							c-15.9,2.5-23.9,3.8-40,6.6l5.6-22.5c16.1-2.8,23.9-4.1,40-6.6c4.1-0.7,7.7-0.8,10.8-0.7c10,0.7,16.1,5.4,19,15.2
							C4816.8,4005.9,4816.9,4010.3,4815.8,4014.4"/>
					</g>
				</g>
			</g>
			<g enable-background="new    ">
				<g>
					<defs>
						<path id="SVGID_109_" d="M4664.5,3930.5c1.8-7.5,3.8-14.9,5.6-22.5c-3.3,12.8-3,27,2.3,42c10.2,28.8,31.8,42.8,55.2,44.2
							c5.9,0.3,12,0,17.9-1.1l-5.6,22.5c-5.9,1.1-12,1.6-17.9,1.1c-23.3-1.5-45.1-15.6-55.2-44.2
							C4661.6,3957.5,4661.2,3943.3,4664.5,3930.5z"/>
					</defs>
					<clipPath id="SVGID_110_">
						<use xlink:href="#SVGID_109_"  overflow="visible"/>
					</clipPath>
					<g clip-path="url(#SVGID_110_)" enable-background="new    ">
						<path fill="#763D3D" d="M4745.5,3993.1l-5.6,22.5c-5.9,1.1-12,1.6-17.9,1.1c-23.3-1.5-45.1-15.6-55.2-44.2
							c-5.2-15.1-5.6-29.2-2.3-42l5.6-22.5c-3.3,12.8-3,27,2.3,42c10.2,28.8,31.8,42.8,55.2,44.2
							C4733.5,3994.7,4739.6,3994.4,4745.5,3993.1"/>
					</g>
				</g>
			</g>
			<g>
				<path fill="#D16D6D" d="M4982.6,3750.5c4.1,18.2,6.1,27.4,10.2,45.6c-27,61.1-52.4,123.1-76.2,186.2
					c36.7-13.6,73.4-26.4,110.6-38c4.1,18.2,6.1,27.4,10,45.6c-54.9,17.4-109,37-162.7,58.8c-5.1-17.9-7.7-26.7-12.8-44.6
					c22.5-64.1,46.5-126.8,72.4-188.8c-37.9,13.3-75.4,27.5-112.6,42.6c-5.1-17.9-7.7-26.7-12.8-44.6
					C4866.1,3790,4923.9,3769.1,4982.6,3750.5z"/>
			</g>
			<g enable-background="new    ">
				<g>
					<defs>
						<path id="SVGID_111_" d="M4874.5,4048.7l-5.6,22.5c-5.1-17.9-7.7-26.7-12.8-44.6l5.6-22.5
							C4866.7,4021.9,4869.4,4030.8,4874.5,4048.7z"/>
					</defs>
					<clipPath id="SVGID_112_">
						<use xlink:href="#SVGID_111_"  overflow="visible"/>
					</clipPath>
					<g clip-path="url(#SVGID_112_)" enable-background="new    ">
						<path fill="#763D3D" d="M4874.5,4048.7l-5.6,22.5c-5.1-17.9-7.7-26.7-12.8-44.6l5.6-22.5
							C4866.7,4021.9,4869.4,4030.8,4874.5,4048.7"/>
					</g>
				</g>
			</g>
			<g enable-background="new    ">
				<g>
					<defs>
						<path id="SVGID_113_" d="M5037.2,3989.8l-5.6,22.5c-54.9,17.4-109,37-162.7,58.8l5.6-22.5
							C4928.2,4026.7,4982.3,4007.2,5037.2,3989.8z"/>
					</defs>
					<clipPath id="SVGID_114_">
						<use xlink:href="#SVGID_113_"  overflow="visible"/>
					</clipPath>
					<g clip-path="url(#SVGID_114_)" enable-background="new    ">
						<path fill="#763D3D" d="M5037.2,3989.8l-5.6,22.5c-54.9,17.4-109,37-162.7,58.8l5.6-22.5
							C4928.2,4026.7,4982.3,4007.2,5037.2,3989.8"/>
					</g>
				</g>
			</g>
			<g enable-background="new    ">
				<g>
					<defs>
						<path id="SVGID_115_" d="M4857.9,4024.2c-1.8,7.5-3.8,14.9-5.6,22.5c-6.9,27.4-28.8,47.7-52,58.2c-13.6,6.2-28.7,9.3-43.1,8.5
							c-24.7-1.6-48-15.2-60.5-46.2l5.6-22.5c12.6,31,35.9,44.6,60.5,46.2c14.4,1,29.5-2.3,43.1-8.5
							C4829.1,4071.8,4851,4051.6,4857.9,4024.2z"/>
					</defs>
					<clipPath id="SVGID_116_">
						<use xlink:href="#SVGID_115_"  overflow="visible"/>
					</clipPath>
					<g clip-path="url(#SVGID_116_)" enable-background="new    ">
						<path fill="#7F4242" d="M4857.9,4024.2l-5.6,22.5c-0.7,2.6-1.5,5.1-2.3,7.5l5.6-22.5
							C4856.4,4029.3,4857.2,4026.9,4857.9,4024.2"/>
						<path fill="#7A4040" d="M4855.6,4031.8l-5.6,22.5c-3.4,9.5-8.7,17.9-15.2,25.2l5.6-22.5
							C4846.8,4049.6,4852.2,4041.3,4855.6,4031.8"/>
						<path fill="#763D3D" d="M4840.4,4057l-5.6,22.5c-9.7,11-22,19.7-34.4,25.4c-13.6,6.2-28.7,9.3-43.1,8.5
							c-24.7-1.6-48-15.2-60.5-46.2l5.6-22.5c12.6,31,35.9,44.6,60.5,46.2c14.4,1,29.5-2.3,43.1-8.5
							C4818.4,4076.7,4830.7,4068,4840.4,4057"/>
					</g>
				</g>
			</g>
			<g>
				<path fill="#D16D6D" d="M4767.4,3837.9c22.6,1.5,43.9,13.4,55.7,41.1c-14.8,6.2-29.7,12.5-44.2,19c-4.6-7.5-12-11-20-11.5
					c-6.9-0.5-14.4,1.3-21,4.3c-18,8.4-28.4,21.8-22.9,38c3.1,9.2,9.5,12.6,17.5,13.1c3.8,0.3,7.9-0.2,12.1-1
					c15.7-2.6,23.6-3.9,39.2-6.2c5.7-1,11.3-1.3,16.9-1c25.1,1.6,47,17.4,56.2,49.7c13.8,48.2-17.5,83.6-50.8,98.8
					c-13.6,6.2-28.7,9.3-43.1,8.5c-24.7-1.6-48-15.2-60.5-46.2c13.9-7.2,28-14.3,42.1-21.1c6.2,12.5,16.7,18.2,27.5,18.8
					c6.7,0.5,13.8-1.1,20-4.1c17.7-8.5,28.2-21.1,23.4-37c-3-9.8-9-14.6-19-15.2c-3.3-0.2-6.9,0-10.8,0.7c-15.9,2.5-23.9,3.8-40,6.6
					c-5.9,1.1-12,1.6-17.9,1.1c-23.3-1.5-45.1-15.6-55.2-44.2c-17-48.7,19-88,52-103.4C4737.8,3840.4,4752.8,3836.9,4767.4,3837.9z"
					/>
			</g>
		</g>
	</g>
</g>
<rect x="4901.3" y="3766.1" fill="#C67575" width="8.2" height="29.5"/>
<ellipse fill="none" stroke="#C67575" stroke-width="3" stroke-miterlimit="10" cx="4905.4" cy="3761.8" rx="5.6" ry="8.5"/>
<rect x="6238.6" y="3753" fill="#C67575" width="8.2" height="26.2"/>
<ellipse fill="none" stroke="#C67575" stroke-width="3" stroke-miterlimit="10" cx="6242.7" cy="3746.8" rx="5.6" ry="8.5"/>
<g>
	<path fill="#E86D78" d="M78.9,126.4c5.1,0.7,10.8-0.5,15.1-3.9c3.9-3.3,4.8-8,2-11.3c-4.9-5.9-14.1,0.5-23.3,2
		c-5.4,0.8-10.8,0.2-15.2-5.1c-6.9-8.2-3.1-19.2,4.4-25.6c4.6-3.9,10-6.4,16.9-6.7L79.6,86c-3.3-0.2-7.4,1.1-10.5,3.6
		c-3.3,2.8-5.9,7.4-2.9,10.8c6.2,7.4,25.4-12.5,38.3,2.9c6.7,8.2,4.1,19.8-4.1,26.7c-6.1,5.2-13.9,7.5-22.1,7L78.9,126.4z"/>
</g>
<g>
	<path fill="#E86D78" d="M172.2,64.1l22-46.7l-26.1,4.1l-1.6-10.2l41.3-6.6l1.1,6.7l-22,46.7l30.5-4.9l1.6,10.2l-45.6,7.2
		L172.2,64.1z"/>
</g>
<g>
	<path fill="#E86D78" d="M323,13.6l-4.3,11.6l17.2,6.2l-3.4,9.7l-17.2-6.2l-5.7,15.6l23.6,8.7l-3.4,9.7l-34.4-12.6L315.8,0
		l33.6,12.3l-3.4,9.7L323,13.6z"/>
</g>
<g>
	<path fill="#E86D78" d="M451,61.9l4.9,6.6l-11.1,50l31.1-23.3l6.9,9.2l-47.9,35.9l-4.9-6.6l11.1-50L410,107l-6.9-9.2L451,61.9z"/>
</g>
<g>
	<path fill="#E86D78" d="M542.7,232.7c0.7,18.4-12.5,31.6-29.5,32.3c-17,0.7-31.1-11.5-32-30c-0.7-18.4,12.5-31.6,29.5-32.3
		C527.8,202.2,542.1,214.4,542.7,232.7z M491.6,234.8c0.5,11.3,10,19.2,21.1,18.8c11.3-0.5,20.2-9.2,19.7-20.3
		c-0.5-11.3-10-19.2-21.1-18.8C500.1,214.9,491.1,223.5,491.6,234.8z"/>
</g>
<g>
	<path fill="#E86D78" d="M502.4,369.4c-9.7-6.2-22-3.6-28.4,6.1c-2.9,4.6-3.8,9.3-3.4,13.6l10.8,7l8.4-12.9l8.5,5.6l-14.6,22.6
		l-22.3-14.4c-2.8-8-2-18,4.1-27.2c10.2-15.6,28.5-19.2,42.9-9.8c14.4,9.3,18.8,27.5,8.7,43.1c-4.8,7.4-11.8,12-19,13.8l-2.6-10.5
		c4.9-1,9.8-3.9,13.1-8.8C514.9,387.8,511.9,375.6,502.4,369.4z"/>
</g>
<g>
	<path fill="#E86D78" d="M405.7,484.4l-10.8-24.1l10.5-4.8l24.4,54.4l-19.8,8.8c-5.6,2.5-9.8,2.6-13.8,1.3c-4.3-1.5-7.9-4.6-9.8-9
		c-2-4.4-1.8-9.2-0.2-13.3c0.8-2.1,2.1-3.9,4.1-5.6l-31.6-15.9l12.9-5.9l30.2,15.4L405.7,484.4z M401.1,497.7
		c-3.1,1.3-4.1,2.6-4.6,3.9c-0.5,1.5-0.3,3.3,0.3,4.8c0.7,1.6,2.1,2.9,3.4,3.4c1.3,0.7,2.9,0.7,6.1-0.7l8.7-3.9l-5.2-11.6
		L401.1,497.7z"/>
</g>
<g>
	<path fill="#E86D78" d="M292.5,504.8l-34.4,55.1l-8-1.3l-16.2-62.9l12,1.8l3.6,13.9l23.8,3.6l7.5-12.3L292.5,504.8z M267.2,524.6
		l-15.1-2.3l4.8,18.7L267.2,524.6z"/>
</g>
<g>
	<path fill="#E86D78" d="M137.1,490l15.7-18.5l8.8,7.4L123,524.4L105.8,510c-5.9-4.9-8.2-9.3-8.4-14.1c-0.3-4.3,1.3-8.8,4.4-12.5
		c2.9-3.6,7.4-6.1,11.6-6.4c4.8-0.5,9.3,1,15.2,5.9L137.1,490z M122.5,491.2c-2.9-2.5-5.1-3.1-7-2.8c-1.8,0.2-3.4,1.1-4.8,2.6
		s-2,3.3-1.8,5.2s1,3.9,3.9,6.6l8,6.7l9.7-11.5L122.5,491.2z"/>
</g>
<g>
	<path fill="#E86D78" d="M35.8,371.5l12.9,26.9L73,386.8l4.9,10.3L24,422.8l-4.9-10.3l20.3-9.8l-12.9-26.9l-20.3,9.8l-4.9-10.3
		l53.9-25.7l4.9,10.3L35.8,371.5z"/>
</g>
<g>
	<path fill="none" stroke="#231F20" d="M155.1,173.1"/>
</g>
<rect x="67.8" y="138" fill="none" width="321.5" height="252.7"/>
<g opacity="0.5">
	<path fill="#606060" d="M131.7,194.9c0,0,69.5,168.5,69.8,170c2.9,10.5,27.7,18.8,61.8,18.8s63.3-7.4,61.8-17.7
		C323.8,355,131.7,194.9,131.7,194.9"/>
</g>
<rect x="139.4" y="138.2" fill="none" width="321.5" height="252.7"/>
<g opacity="0.5">
	<path fill="#606060" d="M396.9,195c0,0-69.5,168.5-69.8,170c-2.9,10.5-27.7,18.8-61.8,18.8s-63.3-7.4-61.8-17.7
		C204.8,355.1,396.9,195,396.9,195"/>
</g>
<g>
	<path fill="#606060" d="M264.3,383.8c33.8,0,61-7,61-15.9c0-8.7-27.4-15.9-61-15.9c-33.8,0-61,7-61,15.9S230.7,383.8,264.3,383.8"
		/>
</g>
</svg>
