<?xml version="1.0" encoding="utf-8"?>
<!-- Generator: Adobe Illustrator 18.0.0, SVG Export Plug-In . SVG Version: 6.00 Build 0)  -->
<!DOCTYPE svg PUBLIC "-//W3C//DTD SVG 1.1//EN" "http://www.w3.org/Graphics/SVG/1.1/DTD/svg11.dtd">
<svg version="1.1" xmlns="http://www.w3.org/2000/svg" xmlns:xlink="http://www.w3.org/1999/xlink" x="0px" y="0px"
	 viewBox="0 0 330.4 341.7" enable-background="new 0 0 330.4 341.7" xml:space="preserve">
<g id="Ebene_3">
</g>
<g id="Ebene_2">
</g>
<g id="Ebene_1">
	<g>
		<path fill="#898888" d="M3107.2,0.2c0,0,33.3,631.9,154.8,820.9c0.5,0.8,0.8,1.9,1.1,3.2c5.2,29.4-57.3,180.7-57.3,180.7
			s3.9,12.6,17.3,17.3c13.3,4.7-6,27.3-6,27.3s10,17.8,16,17.8s-4,13.5-4,13.5h127V869V0L3107.2,0.2z"/>
		<path fill="none" stroke="#EAEAEA" stroke-miterlimit="10" d="M3227.2,1032.4c0,0,59.3-130.1,60-186.1"/>
		<path fill="none" stroke="#EAEAEA" stroke-miterlimit="10" d="M3235.2,1069.4c0,0,66.3-156.1,67-212.1"/>
		<path fill="none" stroke="#EAEAEA" stroke-miterlimit="10" d="M3262.2,1081.4c0,0,58.8-162.7,59.5-218.7"/>
		<path fill="none" stroke="#EAEAEA" stroke-miterlimit="10" d="M3296.2,1081.4c0,0,35.8-158.1,36.5-214.1"/>
		<path fill="none" stroke="#EAEAEA" stroke-miterlimit="10" d="M3321.2,1081.4c0,0,23.8-155.4,24.5-211.4"/>
		<path fill="#F7F7F7" d="M3355.7,869c0,0-66.8-3.5-93.5-39.2l-3.9-14.4c0,0,48.7,47.3,96.4,42L3355.7,869z"/>
		<path fill="none" stroke="#F7F7F7" stroke-miterlimit="10" d="M3291.9,840.3c0,0-133.9-382.6-108.4-840.2"/>
		<path fill="none" stroke="#F7F7F7" stroke-miterlimit="10" d="M3307,846.3c0,0-106.6-517.6-79.8-846.2"/>
		<path fill="none" stroke="#F7F7F7" stroke-miterlimit="10" d="M3321.7,853.7c0,0-77.9-604.7-34.5-853.6"/>
		<path fill="none" stroke="#F7F7F7" stroke-miterlimit="10" d="M3333.4,857.3c0,0-31.6-617.5-0.8-857.3"/>
		<path fill="none" stroke="#F7F7F7" stroke-miterlimit="10" d="M3345.7,857.7c0,0-14.4-793.9,10-823.5"/>
	</g>
	<ellipse fill="#EAD8D8" cx="2558" cy="1906.7" rx="18.6" ry="21.4"/>
	
		<line opacity="5.000000e-02" fill="none" stroke="#564538" stroke-width="4" stroke-miterlimit="10" x1="2576.7" y1="1776.4" x2="2574" y2="3020.4"/>
	
		<line opacity="0.1" fill="none" stroke="#564538" stroke-width="4" stroke-miterlimit="10" x1="2543" y1="1906" x2="2543" y2="3020"/>
	<ellipse fill="#E2C5C5" cx="2558" cy="1907.1" rx="9.7" ry="11.2"/>
	<line fill="none" stroke="#EFC5C5" stroke-width="7" stroke-miterlimit="10" x1="2558.5" y1="1886" x2="2558.5" y2="1776"/>
	
		<line opacity="0.1" fill="none" stroke="#564538" stroke-width="4" stroke-miterlimit="10" x1="2649" y1="1836.1" x2="2741.4" y2="3022"/>
	
		<line opacity="5.000000e-02" fill="none" stroke="#564538" stroke-width="4" stroke-miterlimit="10" x1="2606.2" y1="1776.2" x2="2618" y2="3022.7"/>
	<ellipse opacity="0.3" fill="#564538" cx="4049" cy="2047.3" rx="18.6" ry="21.4"/>
	<ellipse opacity="0.3" fill="#564538" cx="2847" cy="1830.7" rx="18.6" ry="21.4"/>
	
		<line opacity="0.3" fill="none" stroke="#564538" stroke-width="4" stroke-miterlimit="10" x1="4062.1" y1="2062.4" x2="4065" y2="3020.4"/>
	
		<line opacity="0.1" fill="none" stroke="#564538" stroke-width="4" stroke-miterlimit="10" x1="4034.3" y1="2060.4" x2="3882.1" y2="3020.4"/>
	
		<line opacity="0.1" fill="none" stroke="#564538" stroke-width="4" stroke-miterlimit="10" x1="4049" y1="2026" x2="4049" y2="1779"/>
	<ellipse fill="#EAD8D8" cx="4124" cy="1836.5" rx="18.6" ry="21.4"/>
	
		<line opacity="0.1" fill="none" stroke="#564538" stroke-width="4" stroke-miterlimit="10" x1="4140" y1="1837" x2="4140" y2="3023"/>
	
		<line opacity="0.1" fill="none" stroke="#564538" stroke-width="4" stroke-miterlimit="10" x1="4109" y1="1837" x2="4109" y2="3023"/>
	<ellipse fill="#E2C5C5" cx="4124" cy="1836.8" rx="9.7" ry="11.2"/>
	<line fill="none" stroke="#EFC5C5" stroke-width="7" stroke-miterlimit="10" x1="4124.5" y1="1816" x2="4124.5" y2="1776"/>
	
		<line opacity="0.2" fill="none" stroke="#564538" stroke-width="4" stroke-miterlimit="10" x1="3175" y1="1779" x2="3175" y2="3020"/>
	
		<line opacity="0.1" fill="none" stroke="#564538" stroke-width="4" stroke-miterlimit="10" x1="3144" y1="1776" x2="3144" y2="3020"/>
	
		<line opacity="0.2" fill="none" stroke="#564538" stroke-width="4" stroke-miterlimit="10" x1="3250" y1="1778.5" x2="3510.1" y2="3020.4"/>
	
		<line opacity="0.1" fill="none" stroke="#564538" stroke-width="4" stroke-miterlimit="10" x1="3219" y1="1776" x2="3219" y2="3013"/>
	
		<line opacity="0.25" fill="none" stroke="#564538" stroke-width="4" stroke-miterlimit="10" x1="2862" y1="1837" x2="2862" y2="2291"/>
	
		<line opacity="0.25" fill="none" stroke="#564538" stroke-width="4" stroke-miterlimit="10" x1="2828.4" y1="1836.8" x2="2480" y2="3022.7"/>
	
		<line opacity="0.3" fill="none" stroke="#564538" stroke-width="4" stroke-miterlimit="10" x1="2847" y1="1809" x2="2847" y2="1776"/>
	<ellipse opacity="0.3" fill="#564538" cx="3697.6" cy="1829.6" rx="18.6" ry="21.4"/>
	
		<line opacity="0.2" fill="none" stroke="#564538" stroke-width="4" stroke-miterlimit="10" x1="3683" y1="1835" x2="3683" y2="2290"/>
	
		<line opacity="0.2" fill="none" stroke="#564538" stroke-width="4" stroke-miterlimit="10" x1="3716.1" y1="1835.7" x2="4064.6" y2="3021.5"/>
	
		<line opacity="0.3" fill="none" stroke="#564538" stroke-width="4" stroke-miterlimit="10" x1="3698" y1="1808" x2="3698" y2="1775"/>
	<g>
		<path fill="#AA8888" d="M3929.3,1880.1C3930.5,1881.2,3929.3,1880.1,3929.3,1880.1l-8.8,7.5l-28.7,50.2l28.1,28.2l36.6-37
			c0,0,4.6-3.2,8.1-7.8s-0.2,9.4,3.2,11.3c3.4,2,5.2,37.7,5.2,37.7l39.2-19.8l-8.1-39.5l-6-23.3l6.6-15.7l15.6-31.7
			c0,0,0.9-37.6-37.1-33.7c-1.7,0.2-35.6,43-35.6,43l-23.1,1.4l-52.4,39.6l28.4,1.3C3900.5,1891.9,3928,1879,3929.3,1880.1z
			 M3956.7,1843.9"/>
		<polygon fill="#AA8888" points="3969,1848.3 3969,1808.6 3993,1799.3 3993,1837.9 4009,1829.6 4009,1790.7 3986.8,1792.8 
			3986.5,1776 3976.8,1776 3975.9,1796 3957.1,1804.2 3956,1855 		"/>
	</g>
	<g>
		<path fill="#AA8888" d="M2760.9,1891.9l28.4-1.3l-52.4-39.6l-23.1-1.4c0,0-33.9-42.8-35.6-43c-38.1-3.9-37.1,33.7-37.1,33.7
			l15.6,31.7l6.6,15.7l-6,23.3l-8.1,39.5l39.2,19.8c0,0,1.8-35.7,5.2-37.7s-0.3-16,3.2-11.3c3.5,4.6,8.1,7.8,8.1,7.8l36.6,37
			l28.1-28.2l-28.7-50.2l-8.8-7.5c0,0-1.2,1.1,0,0C2733.3,1879,2760.9,1891.9,2760.9,1891.9z M2704.6,1843.9"/>
		<polygon fill="#AA8888" points="2692,1848.3 2692,1808.6 2668,1799.3 2668,1837.9 2652,1829.6 2652,1790.7 2674.3,1792.8 
			2674.9,1776 2684.5,1776 2685.5,1796 2704.3,1804.2 2705.2,1855 		"/>
	</g>
	<polygon opacity="0.4" fill="#EAD768" points="2741.4,1957.5 2873.6,3013 3819.1,3013 2769.5,1929.1 	"/>
	<polygon opacity="0.4" fill="#EAD768" points="3731,3020 2943.4,3020 3891.8,1937.6 3919.9,1965.8 	"/>
	<path fill="#AA5E5E" d="M2576.7,1776.4c0,0-28.3,728-131.2,945.7c-0.4,0.9-0.8,2.2-1,3.7c-4.4,33.9,48.5,208.2,48.5,208.2
		s-3.3,14.6-14.6,19.9c-11.3,5.4,5.1,31.5,5.1,31.5s-8.5,20.8-13.5,20.8s3.4,15.8,3.4,15.8H2366v-244.7V1776.2L2576.7,1776.4z"/>
	<path fill="#F7F7F7" d="M2366,2771.5c0,0,58.1-4,81.3-45.2l3.4-16.6c0,0-42.4,54.5-83.8,48.4L2366,2771.5z"/>
	<path fill="#AA5E5E" d="M4068.2,1776.4c0,0,29.3,728,136.2,945.7c0.5,0.9,0.7,2.2,0.9,3.7c4.6,33.9-50.4,208.2-50.4,208.2
		s3.5,14.6,15.2,19.9c11.7,5.4-5.3,31.5-5.3,31.5s8.8,20.8,14.1,20.8s-3.5,15.8-3.5,15.8H4287v-244.7V1776.2L4068.2,1776.4z"/>
	<path fill="#F7F7F7" d="M4286.7,2777.3c0,0-57.6-4-80.7-45.2l-3.4-16.6c0,0,42,54.5,83.2,48.4L4286.7,2777.3z"/>
	<g>
		<g>
			<g enable-background="new    ">
				<g enable-background="new    ">
					<defs>
						<path id="SVGID_1_" enable-background="new    " d="M3675.3,2332.5l-3.4,13.7c-10.3-3.6-20.6-7.1-30.9-10.5l3.4-13.7
							C3654.7,2325.4,3665,2328.9,3675.3,2332.5z"/>
					</defs>
					<clipPath id="SVGID_2_">
						<use xlink:href="#SVGID_1_"  overflow="visible"/>
					</clipPath>
					<g clip-path="url(#SVGID_2_)" enable-background="new    ">
						<path fill="#763D3D" d="M3675.3,2332.5l-3.4,13.7c-10.3-3.6-20.6-7.1-30.9-10.5l3.4-13.7
							C3654.7,2325.4,3665,2328.9,3675.3,2332.5"/>
					</g>
				</g>
				<g enable-background="new    ">
					<defs>
						<path id="SVGID_3_" enable-background="new    " d="M3692.1,2362.9l-3.4,13.7c3.2-14.2-5.7-27-16.8-30.4l3.4-13.7
							C3686.4,2335.9,3695.3,2348.7,3692.1,2362.9z"/>
					</defs>
					<clipPath id="SVGID_4_">
						<use xlink:href="#SVGID_3_"  overflow="visible"/>
					</clipPath>
					<g clip-path="url(#SVGID_4_)" enable-background="new    ">
						<path fill="#763D3D" d="M3692.1,2362.9l-3.4,13.7c3.2-14.2-5.7-27-16.8-30.4l3.4-13.7
							C3686.4,2335.9,3695.3,2348.7,3692.1,2362.9"/>
					</g>
				</g>
				<g enable-background="new    ">
					<defs>
						<path id="SVGID_5_" enable-background="new    " d="M3692,2363.5l-3.4,13.7c0-0.2,0.1-0.4,0.1-0.6l3.4-13.7
							C3692.1,2363.1,3692,2363.3,3692,2363.5z"/>
					</defs>
					<clipPath id="SVGID_6_">
						<use xlink:href="#SVGID_5_"  overflow="visible"/>
					</clipPath>
					<g clip-path="url(#SVGID_6_)" enable-background="new    ">
						<path fill="#763D3D" d="M3692,2363.5l-3.4,13.7c0-0.2,0.1-0.4,0.1-0.6l3.4-13.7C3692.1,2363.1,3692,2363.3,3692,2363.5"/>
					</g>
				</g>
				<g enable-background="new    ">
					<defs>
						<path id="SVGID_7_" enable-background="new    " d="M3763.3,2337.1l-3.4,13.7c-5,19-10,38-15,56.9l3.4-13.7
							C3753.3,2375.1,3758.3,2356.1,3763.3,2337.1z"/>
					</defs>
					<clipPath id="SVGID_8_">
						<use xlink:href="#SVGID_7_"  overflow="visible"/>
					</clipPath>
					<g clip-path="url(#SVGID_8_)" enable-background="new    ">
						<path fill="#7F4242" d="M3763.3,2337.1l-3.4,13.7c-5,19-10,38-15,56.9l3.4-13.7C3753.3,2375.1,3758.3,2356.1,3763.3,2337.1"/>
					</g>
				</g>
				<g enable-background="new    ">
					<defs>
						<path id="SVGID_9_" enable-background="new    " d="M3718.8,2373.2l-3.4,13.7c-6.2,25.6-24.9,36.6-44.5,35.3
							c-4.8-0.3-9.7-1.4-14.4-3.1c-9.8-3.5-19.7-6.8-29.6-10l3.4-13.7c9.9,3.2,19.8,6.6,29.6,10c4.8,1.8,9.6,2.8,14.4,3.1
							C3693.9,2409.8,3712.5,2398.8,3718.8,2373.2z"/>
					</defs>
					<clipPath id="SVGID_10_">
						<use xlink:href="#SVGID_9_"  overflow="visible"/>
					</clipPath>
					<g clip-path="url(#SVGID_10_)" enable-background="new    ">
						<path fill="#7F4242" d="M3718.8,2373.2l-3.4,13.7c-0.6,2.4-1.3,4.6-2,6.7l3.4-13.7C3717.5,2377.8,3718.2,2375.6,3718.8,2373.2
							"/>
						<path fill="#7A4040" d="M3716.7,2379.9l-3.4,13.7c-2.2,6-5.2,11-8.7,15.1l3.4-13.7C3711.6,2390.9,3714.5,2385.9,3716.7,2379.9
							"/>
						<path fill="#763D3D" d="M3708,2395l-3.4,13.7c-8.8,10-21,14.4-33.8,13.5c-4.8-0.3-9.7-1.4-14.4-3.1c-9.8-3.5-19.7-6.8-29.6-10
							l3.4-13.7c9.9,3.2,19.8,6.6,29.6,10c4.8,1.8,9.6,2.8,14.4,3.1C3687,2409.4,3699.2,2405.1,3708,2395"/>
					</g>
				</g>
				<g enable-background="new    ">
					<defs>
						<path id="SVGID_11_" enable-background="new    " d="M3791.2,2443.9l-3.4,13.7c-16.6-7.9-33.3-15.5-50.1-22.8l3.4-13.7
							C3757.9,2428.4,3774.6,2436,3791.2,2443.9z"/>
					</defs>
					<clipPath id="SVGID_12_">
						<use xlink:href="#SVGID_11_"  overflow="visible"/>
					</clipPath>
					<g clip-path="url(#SVGID_12_)" enable-background="new    ">
						<path fill="#763D3D" d="M3791.2,2443.9l-3.4,13.7c-16.6-7.9-33.3-15.5-50.1-22.8l3.4-13.7
							C3757.9,2428.4,3774.6,2436,3791.2,2443.9"/>
					</g>
				</g>
				<g enable-background="new    ">
					<defs>
						<path id="SVGID_13_" enable-background="new    " d="M3596.1,2432.3l-3.4,13.7c8.6-48.9,17.3-97.7,25.9-146.6l3.4-13.7
							C3613.4,2334.6,3604.7,2383.4,3596.1,2432.3z"/>
					</defs>
					<clipPath id="SVGID_14_">
						<use xlink:href="#SVGID_13_"  overflow="visible"/>
					</clipPath>
					<g clip-path="url(#SVGID_14_)" enable-background="new    ">
						<path fill="#763D3D" d="M3596.1,2432.3l-3.4,13.7c8.6-48.9,17.3-97.7,25.9-146.6l3.4-13.7
							C3613.4,2334.6,3604.7,2383.4,3596.1,2432.3"/>
					</g>
				</g>
				<g enable-background="new    ">
					<defs>
						<path id="SVGID_15_" enable-background="new    " d="M3621.6,2440.2l-3.4,13.7c-10.2-3.3-15.3-4.9-25.5-7.9l3.4-13.7
							C3606.3,2435.3,3611.4,2436.9,3621.6,2440.2z"/>
					</defs>
					<clipPath id="SVGID_16_">
						<use xlink:href="#SVGID_15_"  overflow="visible"/>
					</clipPath>
					<g clip-path="url(#SVGID_16_)" enable-background="new    ">
						<path fill="#763D3D" d="M3621.6,2440.2l-3.4,13.7c-10.2-3.3-15.3-4.9-25.5-7.9l3.4-13.7
							C3606.3,2435.3,3611.4,2436.9,3621.6,2440.2"/>
					</g>
				</g>
				<g>
					<path fill="#D16D6D" d="M3681.2,2305c25,8.4,45.7,35,37.6,68.3c-6.2,25.6-24.9,36.6-44.5,35.3c-4.8-0.3-9.7-1.4-14.4-3.1
						c-9.8-3.5-19.7-6.8-29.6-10c-2.9,14.9-5.8,29.9-8.7,44.8c-10.2-3.3-15.3-4.9-25.5-7.9c8.6-48.9,17.3-97.7,25.9-146.6
						C3641.8,2291.7,3661.5,2298.1,3681.2,2305z M3692.1,2362.9c3.2-14.2-5.7-27-16.8-30.4c-10.3-3.6-20.6-7.1-30.9-10.4
						c-2.9,15.2-5.9,30.4-8.8,45.6c10.1,3.3,20.1,6.6,30.1,10.2c2.1,0.8,4.2,1.3,6.2,1.4C3680.9,2379.9,3689.5,2374.3,3692.1,2362.9
						"/>
				</g>
				<g enable-background="new    ">
					<defs>
						<path id="SVGID_17_" enable-background="new    " d="M3700.6,2469l-3.4,13.7c11.8-47.8,23.5-95.5,35.3-143.3l3.4-13.7
							C3724.2,2373.5,3712.4,2421.2,3700.6,2469z"/>
					</defs>
					<clipPath id="SVGID_18_">
						<use xlink:href="#SVGID_17_"  overflow="visible"/>
					</clipPath>
					<g clip-path="url(#SVGID_18_)" enable-background="new    ">
						<path fill="#763D3D" d="M3700.6,2469l-3.4,13.7c11.8-47.8,23.5-95.5,35.3-143.3l3.4-13.7
							C3724.2,2373.5,3712.4,2421.2,3700.6,2469"/>
					</g>
				</g>
				<g enable-background="new    ">
					<defs>
						<path id="SVGID_19_" enable-background="new    " d="M3741.1,2421.1l-3.4,13.7c-5.1,19.5-10.3,38.9-15.4,58.4l3.4-13.7
							C3730.9,2460,3736,2440.5,3741.1,2421.1z"/>
					</defs>
					<clipPath id="SVGID_20_">
						<use xlink:href="#SVGID_19_"  overflow="visible"/>
					</clipPath>
					<g clip-path="url(#SVGID_20_)" enable-background="new    ">
						<path fill="#7F4242" d="M3741.1,2421.1l-3.4,13.7c-5.1,19.5-10.3,38.9-15.4,58.4l3.4-13.7
							C3730.9,2460,3736,2440.5,3741.1,2421.1"/>
					</g>
				</g>
				<g enable-background="new    ">
					<defs>
						<path id="SVGID_21_" enable-background="new    " d="M3725.7,2479.4l-3.4,13.7c-10-4.3-15-6.4-25.1-10.5l3.4-13.7
							C3710.7,2473,3715.7,2475.1,3725.7,2479.4z"/>
					</defs>
					<clipPath id="SVGID_22_">
						<use xlink:href="#SVGID_21_"  overflow="visible"/>
					</clipPath>
					<g clip-path="url(#SVGID_22_)" enable-background="new    ">
						<path fill="#763D3D" d="M3725.7,2479.4l-3.4,13.7c-10-4.3-15-6.4-25.1-10.5l3.4-13.7C3710.7,2473,3715.7,2475.1,3725.7,2479.4
							"/>
					</g>
				</g>
				<g enable-background="new    ">
					<defs>
						<path id="SVGID_23_" enable-background="new    " d="M3798.8,2513.7l-3.4,13.7c-9.9-5-14.8-7.5-24.7-12.3l3.4-13.7
							C3784,2506.2,3788.9,2508.7,3798.8,2513.7z"/>
					</defs>
					<clipPath id="SVGID_24_">
						<use xlink:href="#SVGID_23_"  overflow="visible"/>
					</clipPath>
					<g clip-path="url(#SVGID_24_)" enable-background="new    ">
						<path fill="#763D3D" d="M3798.8,2513.7l-3.4,13.7c-9.9-5-14.8-7.5-24.7-12.3l3.4-13.7
							C3784,2506.2,3788.9,2508.7,3798.8,2513.7"/>
					</g>
				</g>
				<g enable-background="new    ">
					<defs>
						<path id="SVGID_25_" enable-background="new    " d="M3842.9,2374.5l-3.4,13.7c-14.7,46.4-29.4,92.8-44.1,139.3l3.4-13.7
							C3813.5,2467.3,3828.2,2420.9,3842.9,2374.5z"/>
					</defs>
					<clipPath id="SVGID_26_">
						<use xlink:href="#SVGID_25_"  overflow="visible"/>
					</clipPath>
					<g clip-path="url(#SVGID_26_)" enable-background="new    ">
						<path fill="#7F4242" d="M3842.9,2374.5l-3.4,13.7c-14.7,46.4-29.4,92.8-44.1,139.3l3.4-13.7
							C3813.5,2467.3,3828.2,2420.9,3842.9,2374.5"/>
					</g>
				</g>
				<g>
					<path fill="#D16D6D" d="M3735.9,2325.7c9.1,3.7,18.3,7.5,27.3,11.4c-5,19-10,38-15,56.9c17.1,7.4,34,15.2,50.9,23.2
						c5.6-18.7,11.2-37.4,16.7-56.1c9,4.3,18,8.8,26.9,13.4c-14.7,46.4-29.4,92.8-44.1,139.3c-9.9-5-14.8-7.5-24.7-12.3
						c5.7-19.2,11.4-38.4,17.2-57.5c-16.6-7.9-33.3-15.5-50.1-22.8c-5.1,19.5-10.3,38.9-15.4,58.4c-10-4.3-15-6.4-25.1-10.5
						C3712.4,2421.2,3724.2,2373.5,3735.9,2325.7z"/>
				</g>
			</g>
			<g enable-background="new    ">
				<g>
					<path fill="#D16D6D" d="M3473.2,2417.1c1.8,0.3,3.5,0.6,5.1,1C3476.6,2417.7,3474.9,2417.4,3473.2,2417.1z"/>
				</g>
				<g enable-background="new    ">
					<defs>
						<path id="SVGID_27_" enable-background="new    " d="M3460.6,2293.9l-3.4,13.7c0.9-10.5-5.4-17.2-16-18.7
							c-11.3-1.6-22.6-3.1-34-4.5l3.4-13.7c11.3,1.4,22.7,2.9,34,4.5C3455.2,2276.7,3461.5,2283.4,3460.6,2293.9z"/>
					</defs>
					<clipPath id="SVGID_28_">
						<use xlink:href="#SVGID_27_"  overflow="visible"/>
					</clipPath>
					<g clip-path="url(#SVGID_28_)" enable-background="new    ">
						<path fill="#763D3D" d="M3460.6,2293.9l-3.4,13.7c0.9-10.5-5.4-17.2-16-18.7c-11.3-1.6-22.6-3.1-34-4.5l3.4-13.7
							c11.3,1.4,22.7,2.9,34,4.5C3455.2,2276.7,3461.5,2283.4,3460.6,2293.9"/>
					</g>
				</g>
				<g enable-background="new    ">
					<defs>
						<path id="SVGID_29_" enable-background="new    " d="M3460.1,2297.1c-1.1,4.6-2.3,9.1-3.4,13.7c0.2-1,0.4-2,0.5-3.2l3.4-13.7
							C3460.5,2295,3460.3,2296.1,3460.1,2297.1z"/>
					</defs>
					<clipPath id="SVGID_30_">
						<use xlink:href="#SVGID_29_"  overflow="visible"/>
					</clipPath>
					<g clip-path="url(#SVGID_30_)" enable-background="new    ">
						<path fill="#763D3D" d="M3460.1,2297.1l-3.4,13.7c0.2-1,0.4-2,0.5-3.2l3.4-13.7C3460.5,2295,3460.3,2296.1,3460.1,2297.1"/>
					</g>
				</g>
				<g enable-background="new    ">
					<defs>
						<path id="SVGID_31_" enable-background="new    " d="M3486.8,2305.7c-1.1,4.6-2.3,9.1-3.4,13.7c-4.4,17.8-17.7,28.7-33.3,29.8
							l3.4-13.7C3469.1,2334.4,3482.4,2323.5,3486.8,2305.7z"/>
					</defs>
					<clipPath id="SVGID_32_">
						<use xlink:href="#SVGID_31_"  overflow="visible"/>
					</clipPath>
					<g clip-path="url(#SVGID_32_)" enable-background="new    ">
						<path fill="#7F4242" d="M3486.8,2305.7l-3.4,13.7c-0.4,1.7-0.9,3.3-1.5,4.9l3.4-13.7C3485.9,2309,3486.4,2307.4,3486.8,2305.7
							"/>
						<path fill="#7A4040" d="M3485.3,2310.6l-3.4,13.7c-1.8,4.9-4.4,9.2-7.5,12.8l3.4-13.7
							C3480.9,2319.8,3483.5,2315.5,3485.3,2310.6"/>
						<path fill="#763D3D" d="M3477.8,2323.4l-3.4,13.7c-6.3,7.2-14.8,11.4-24.3,12.1l3.4-13.7
							C3463,2334.8,3471.6,2330.6,3477.8,2323.4"/>
					</g>
				</g>
				<g enable-background="new    ">
					<defs>
						<path id="SVGID_33_" enable-background="new    " d="M3557.4,2362.7l-3.4,13.7c-2.8-17.3-5.8-34.6-8.8-51.8l3.4-13.7
							C3551.7,2328.2,3554.6,2345.4,3557.4,2362.7z"/>
					</defs>
					<clipPath id="SVGID_34_">
						<use xlink:href="#SVGID_33_"  overflow="visible"/>
					</clipPath>
					<g clip-path="url(#SVGID_34_)" enable-background="new    ">
						<path fill="#763D3D" d="M3557.4,2362.7l-3.4,13.7c-2.8-17.3-5.8-34.6-8.8-51.8l3.4-13.7
							C3551.7,2328.2,3554.6,2345.4,3557.4,2362.7"/>
					</g>
				</g>
				<g enable-background="new    ">
					<defs>
						<path id="SVGID_35_" enable-background="new    " d="M3548.6,2310.9l-3.4,13.7c-7.5,14.7-14.8,29.5-22.1,44.4l3.4-13.7
							C3533.8,2340.4,3541.1,2325.6,3548.6,2310.9z"/>
					</defs>
					<clipPath id="SVGID_36_">
						<use xlink:href="#SVGID_35_"  overflow="visible"/>
					</clipPath>
					<g clip-path="url(#SVGID_36_)" enable-background="new    ">
						<path fill="#7A4040" d="M3548.6,2310.9l-3.4,13.7c-7.5,14.7-14.8,29.5-22.1,44.4l3.4-13.7
							C3533.8,2340.4,3541.1,2325.6,3548.6,2310.9"/>
					</g>
				</g>
				<g enable-background="new    ">
					<defs>
						<path id="SVGID_37_" enable-background="new    " d="M3423.6,2332.6l-3.4,13.7c-6.6-0.9-9.9-1.3-16.4-2.1l3.4-13.7
							C3413.8,2331.3,3417,2331.7,3423.6,2332.6z"/>
					</defs>
					<clipPath id="SVGID_38_">
						<use xlink:href="#SVGID_37_"  overflow="visible"/>
					</clipPath>
					<g clip-path="url(#SVGID_38_)" enable-background="new    ">
						<path fill="#763D3D" d="M3423.6,2332.6l-3.4,13.7c-6.6-0.9-9.9-1.3-16.4-2.1l3.4-13.7
							C3413.8,2331.3,3417,2331.7,3423.6,2332.6"/>
					</g>
				</g>
				<g enable-background="new    ">
					<defs>
						<path id="SVGID_39_" enable-background="new    " d="M3562.5,2391.8l-3.4,13.7c-16.1-4.2-32.2-8.1-48.4-11.6l3.4-13.7
							C3530.2,2383.8,3546.4,2387.6,3562.5,2391.8z"/>
					</defs>
					<clipPath id="SVGID_40_">
						<use xlink:href="#SVGID_39_"  overflow="visible"/>
					</clipPath>
					<g clip-path="url(#SVGID_40_)" enable-background="new    ">
						<path fill="#763D3D" d="M3562.5,2391.8l-3.4,13.7c-16.1-4.2-32.2-8.1-48.4-11.6l3.4-13.7
							C3530.2,2383.8,3546.4,2387.6,3562.5,2391.8"/>
					</g>
				</g>
				<g enable-background="new    ">
					<defs>
						<path id="SVGID_41_" enable-background="new    " d="M3474.3,2407.9c0,0,0,0.1-0.1,0.1c1.1-4.6,2.3-9.1,3.4-13.7
							c0,0,0-0.1,0.1-0.1C3476.7,2398.4,3475.7,2403.9,3474.3,2407.9z"/>
					</defs>
					<clipPath id="SVGID_42_">
						<use xlink:href="#SVGID_41_"  overflow="visible"/>
					</clipPath>
					<g clip-path="url(#SVGID_42_)" enable-background="new    ">
						<path fill="#7A4040" d="M3477.8,2394.3l-3.4,13.7c-1.3,2.9-2.6,5.7-3.9,8.6l3.4-13.7C3475.1,2400,3476.5,2397.1,3477.8,2394.3
							"/>
					</g>
				</g>
				<g enable-background="new    ">
					<defs>
						<path id="SVGID_43_" enable-background="new    " d="M3567.5,2424.1l-3.4,13.7c-1.9-12.9-2.9-19.4-5-32.3l3.4-13.7
							C3564.5,2404.8,3565.5,2411.2,3567.5,2424.1z"/>
					</defs>
					<clipPath id="SVGID_44_">
						<use xlink:href="#SVGID_43_"  overflow="visible"/>
					</clipPath>
					<g clip-path="url(#SVGID_44_)" enable-background="new    ">
						<path fill="#763D3D" d="M3567.5,2424.1l-3.4,13.7c-1.9-12.9-2.9-19.4-5-32.3l3.4-13.7
							C3564.5,2404.8,3565.5,2411.2,3567.5,2424.1"/>
					</g>
				</g>
				<g enable-background="new    ">
					<defs>
						<path id="SVGID_45_" enable-background="new    " d="M3514.1,2380.3l-3.4,13.7c-5.4,11.1-8,16.7-13.3,27.9l3.4-13.7
							C3506,2396.9,3508.7,2391.4,3514.1,2380.3z"/>
					</defs>
					<clipPath id="SVGID_46_">
						<use xlink:href="#SVGID_45_"  overflow="visible"/>
					</clipPath>
					<g clip-path="url(#SVGID_46_)" enable-background="new    ">
						<path fill="#7A4040" d="M3514.1,2380.3l-3.4,13.7c-5.4,11.1-8,16.7-13.3,27.9l3.4-13.7
							C3506,2396.9,3508.7,2391.4,3514.1,2380.3"/>
					</g>
				</g>
				<g enable-background="new    ">
					<defs>
						<path id="SVGID_47_" enable-background="new    " d="M3594.2,2431.7l-3.4,13.7c-10.7-3.2-16-4.7-26.7-7.6l3.4-13.7
							C3578.2,2427,3583.5,2428.5,3594.2,2431.7z"/>
					</defs>
					<clipPath id="SVGID_48_">
						<use xlink:href="#SVGID_47_"  overflow="visible"/>
					</clipPath>
					<g clip-path="url(#SVGID_48_)" enable-background="new    ">
						<path fill="#763D3D" d="M3594.2,2431.7l-3.4,13.7c-10.7-3.2-16-4.7-26.7-7.6l3.4-13.7
							C3578.2,2427,3583.5,2428.5,3594.2,2431.7"/>
					</g>
				</g>
				<g enable-background="new    ">
					<defs>
						<path id="SVGID_49_" enable-background="new    " d="M3474.3,2408.1c-1.2,2.6-2.4,5.2-3.5,7.8c1.1-4.6,2.3-9.1,3.4-13.7
							c1.2-2.6,2.4-5.2,3.6-7.8c-0.4,1.4-0.7,2.9-1.1,4.3s-0.7,2.9-1.1,4.3c-0.1,0.3-0.1,0.6-0.2,0.9c-0.2,0.9-0.4,1.7-0.6,2.6
							C3474.6,2406.9,3474.5,2407.6,3474.3,2408.1z"/>
					</defs>
					<clipPath id="SVGID_50_">
						<use xlink:href="#SVGID_49_"  overflow="visible"/>
					</clipPath>
					<g clip-path="url(#SVGID_50_)" enable-background="new    ">
						<path fill="#7A4040" d="M3477.8,2394.3l-3.4,13.7c-1.3,2.9-2.6,5.7-3.9,8.6l3.4-13.7C3475.1,2400,3476.5,2397.1,3477.8,2394.3
							"/>
					</g>
				</g>
				<g enable-background="new    ">
					<defs>
						<path id="SVGID_51_" enable-background="new    " d="M3500.8,2408.1l-3.4,13.7c-7.8-1.6-12.8-2.6-19-3.8
							c-1.6-0.3-3.3-0.6-5.1-1c-0.9-0.2-1.8-0.3-2.8-0.5l3.4-13.7c1,0.2,1.9,0.3,2.8,0.5c1.8,0.3,3.5,0.6,5.1,1
							C3488,2405.5,3493,2406.5,3500.8,2408.1z"/>
					</defs>
					<clipPath id="SVGID_52_">
						<use xlink:href="#SVGID_51_"  overflow="visible"/>
					</clipPath>
					<g clip-path="url(#SVGID_52_)" enable-background="new    ">
						<path fill="#763D3D" d="M3500.8,2408.1l-3.4,13.7c-7.8-1.6-12.8-2.6-19-3.8c-1.6-0.3-3.3-0.6-5.1-1c-0.9-0.2-1.8-0.3-2.8-0.5
							l3.4-13.7c1,0.2,1.9,0.3,2.8,0.5c1.8,0.3,3.5,0.6,5.1,1C3488,2405.5,3493,2406.5,3500.8,2408.1"/>
					</g>
				</g>
				<g enable-background="new    ">
					<defs>
						<path id="SVGID_53_" enable-background="new    " d="M3481.7,2404.3l-3.4,13.7c-1.6-0.3-3.3-0.6-5.1-1l3.4-13.7
							C3478.5,2403.7,3480.1,2404,3481.7,2404.3z"/>
					</defs>
					<clipPath id="SVGID_54_">
						<use xlink:href="#SVGID_53_"  overflow="visible"/>
					</clipPath>
					<g clip-path="url(#SVGID_54_)" enable-background="new    ">
						<path fill="#763D3D" d="M3481.7,2404.3l-3.4,13.7c-1.6-0.3-3.3-0.6-5.1-1l3.4-13.7C3478.5,2403.7,3480.1,2404,3481.7,2404.3"
							/>
					</g>
				</g>
				<g>
					<path fill="#D16D6D" d="M3567.9,2270.8c10,53.4,18.8,106.9,26.3,160.9c-10.7-3.2-16-4.7-26.7-7.6c-1.9-12.9-2.9-19.4-5-32.3
						c-16.1-4.2-32.2-8.1-48.4-11.6c-5.4,11.1-8,16.7-13.3,27.9c-7.8-1.6-12.8-2.6-19-3.8c-1.6-0.3-3.3-0.6-5.1-1
						c-0.9-0.2-1.8-0.3-2.8-0.5c1.3-2.9,2.6-5.7,3.9-8.6c20.1-44.1,41.3-87.3,63.4-129.8C3551.9,2266.9,3557.3,2268.2,3567.9,2270.8
						z M3526.5,2355.3c10.3,2.3,20.6,4.8,30.9,7.4c-2.8-17.3-5.8-34.6-8.8-51.8C3541.1,2325.6,3533.8,2340.4,3526.5,2355.3"/>
				</g>
				<g enable-background="new    ">
					<defs>
						<path id="SVGID_55_" enable-background="new    " d="M3452.1,2399.1l-3.4,13.7c-9.1-22.4-18.7-44.5-28.5-66.5l3.4-13.7
							C3433.4,2354.6,3442.9,2376.7,3452.1,2399.1z"/>
					</defs>
					<clipPath id="SVGID_56_">
						<use xlink:href="#SVGID_55_"  overflow="visible"/>
					</clipPath>
					<g clip-path="url(#SVGID_56_)" enable-background="new    ">
						<path fill="#763D3D" d="M3452.1,2399.1l-3.4,13.7c-9.1-22.4-18.7-44.5-28.5-66.5l3.4-13.7
							C3433.4,2354.6,3442.9,2376.7,3452.1,2399.1"/>
					</g>
				</g>
				<g enable-background="new    ">
					<defs>
						<path id="SVGID_57_" enable-background="new    " d="M3473.8,2402.9l-3.4,13.7c-7.3-1.3-14.5-2.6-21.8-3.8l3.4-13.7
							C3459.3,2400.3,3466.6,2401.5,3473.8,2402.9z"/>
					</defs>
					<clipPath id="SVGID_58_">
						<use xlink:href="#SVGID_57_"  overflow="visible"/>
					</clipPath>
					<g clip-path="url(#SVGID_58_)" enable-background="new    ">
						<path fill="#763D3D" d="M3473.8,2402.9l-3.4,13.7c-7.3-1.3-14.5-2.6-21.8-3.8l3.4-13.7
							C3459.3,2400.3,3466.6,2401.5,3473.8,2402.9"/>
					</g>
				</g>
				<g enable-background="new    ">
					<defs>
						<path id="SVGID_59_" enable-background="new    " d="M3377.7,2389.5l-3.4,13.7c2.1-50.1,4.3-100.3,6.4-150.4l3.4-13.7
							C3381.9,2289.3,3379.8,2339.4,3377.7,2389.5z"/>
					</defs>
					<clipPath id="SVGID_60_">
						<use xlink:href="#SVGID_59_"  overflow="visible"/>
					</clipPath>
					<g clip-path="url(#SVGID_60_)" enable-background="new    ">
						<path fill="#763D3D" d="M3377.7,2389.5l-3.4,13.7c2.1-50.1,4.3-100.3,6.4-150.4l3.4-13.7
							C3381.9,2289.3,3379.8,2339.4,3377.7,2389.5"/>
					</g>
				</g>
				<g enable-background="new    ">
					<defs>
						<path id="SVGID_61_" enable-background="new    " d="M3403.6,2392.3l-3.4,13.7c-10.4-1.2-15.5-1.8-25.9-2.8l3.4-13.7
							C3388.1,2390.5,3393.2,2391.1,3403.6,2392.3z"/>
					</defs>
					<clipPath id="SVGID_62_">
						<use xlink:href="#SVGID_61_"  overflow="visible"/>
					</clipPath>
					<g clip-path="url(#SVGID_62_)" enable-background="new    ">
						<path fill="#763D3D" d="M3403.6,2392.3l-3.4,13.7c-10.4-1.2-15.5-1.8-25.9-2.8l3.4-13.7
							C3388.1,2390.5,3393.2,2391.1,3403.6,2392.3"/>
					</g>
				</g>
				<g>
					<path fill="#D16D6D" d="M3446.2,2246.6c22.3,2.9,45.1,20.6,41.9,51.6c-2.3,22.2-16.9,36-34.5,37.2
						c8.3,19.5,16.4,39.1,24.2,58.8c-1.3,2.9-2.6,5.7-3.9,8.6c-7.3-1.3-14.5-2.6-21.8-3.8c-9.1-22.4-18.7-44.5-28.5-66.5
						c-6.6-0.9-9.9-1.3-16.4-2.1c-1.2,20.6-2.4,41.2-3.6,61.8c-10.4-1.2-15.5-1.8-25.9-2.8c2.1-50.1,4.3-100.3,6.4-150.4
						C3404.8,2241.2,3425.5,2243.7,3446.2,2246.6z M3460.6,2293.9c0.9-10.5-5.4-17.2-16-18.7c-11.3-1.6-22.6-3.1-34-4.5
						c-0.7,12.8-1.1,19.2-1.9,32c11.1,1.4,22.3,2.8,33.4,4.4c0.8,0.1,1.5,0.2,2.2,0.2C3453.6,2307.9,3459.8,2303.4,3460.6,2293.9"/>
				</g>
			</g>
			<g enable-background="new    ">
				<g enable-background="new    ">
					<defs>
						<path id="SVGID_63_" enable-background="new    " d="M3371,2285.6l-3.4,13.7c-8.5-0.7-13.7-1.1-20.7-1.6
							c-2.1-0.1-4.4-0.3-7-0.4l3.4-13.7c2.6,0.2,4.9,0.3,7,0.4C3357.2,2284.5,3362.5,2284.9,3371,2285.6z"/>
					</defs>
					<clipPath id="SVGID_64_">
						<use xlink:href="#SVGID_63_"  overflow="visible"/>
					</clipPath>
					<g clip-path="url(#SVGID_64_)" enable-background="new    ">
						<path fill="#763D3D" d="M3371,2285.6l-3.4,13.7c-8.5-0.7-13.7-1.1-20.7-1.6c-2.1-0.1-4.4-0.3-7-0.4l3.4-13.7
							c2.6,0.2,4.9,0.3,7,0.4C3357.2,2284.5,3362.5,2284.9,3371,2285.6"/>
					</g>
				</g>
				<g enable-background="new    ">
					<defs>
						<path id="SVGID_65_" enable-background="new    " d="M3287.7,2293.5l3.4-13.7c3.2-12.9,15.1-19,25.9-18.6c0.3,0,0.5,0,0.8,0
							c10.9,0.7,22.9,7.8,25.4,22.4l-3.4,13.7c-2.5-14.6-14.5-21.7-25.4-22.4c-0.3,0-0.5,0-0.8,0
							C3302.8,2274.5,3290.9,2280.6,3287.7,2293.5z"/>
					</defs>
					<clipPath id="SVGID_66_">
						<use xlink:href="#SVGID_65_"  overflow="visible"/>
					</clipPath>
					<g clip-path="url(#SVGID_66_)" enable-background="new    ">
						<path fill="#763D3D" d="M3343.2,2283.6l-3.4,13.7c-2.5-14.6-14.5-21.7-25.4-22.4c-0.3,0-0.5,0-0.8,0
							c-7.5-0.3-15.5,2.6-20.8,8.6l3.4-13.7c5.3-6,13.3-8.9,20.8-8.6c0.3,0,0.5,0,0.8,0C3328.8,2261.9,3340.7,2269,3343.2,2283.6"/>
						<path fill="#7A4040" d="M3296.3,2269.8l-3.4,13.7c-1.8,2.1-3.3,4.5-4.4,7.4l3.4-13.7C3293,2274.3,3294.5,2271.9,3296.3,2269.8
							"/>
						<path fill="#7F4242" d="M3291.9,2277.2l-3.4,13.7c-0.3,0.8-0.6,1.7-0.8,2.6l3.4-13.7C3291.3,2278.9,3291.6,2278,3291.9,2277.2
							"/>
					</g>
				</g>
				<g enable-background="new    ">
					<defs>
						<path id="SVGID_67_" enable-background="new    " d="M3316.7,2327.9l-3.4,13.7c0.1-11.5,0.1-17.2,0.2-28.6l3.4-13.7
							C3316.8,2310.8,3316.7,2316.5,3316.7,2327.9z"/>
					</defs>
					<clipPath id="SVGID_68_">
						<use xlink:href="#SVGID_67_"  overflow="visible"/>
					</clipPath>
					<g clip-path="url(#SVGID_68_)" enable-background="new    ">
						<path fill="#763D3D" d="M3316.7,2327.9l-3.4,13.7c0.1-11.5,0.1-17.2,0.2-28.6l3.4-13.7
							C3316.8,2310.8,3316.7,2316.5,3316.7,2327.9"/>
					</g>
				</g>
				<g enable-background="new    ">
					<defs>
						<path id="SVGID_69_" enable-background="new    " d="M3342.7,2329.3l-3.4,13.7c-10.4-0.6-15.6-0.9-26-1.3l3.4-13.7
							C3327.1,2328.3,3332.3,2328.6,3342.7,2329.3z"/>
					</defs>
					<clipPath id="SVGID_70_">
						<use xlink:href="#SVGID_69_"  overflow="visible"/>
					</clipPath>
					<g clip-path="url(#SVGID_70_)" enable-background="new    ">
						<path fill="#763D3D" d="M3342.7,2329.3l-3.4,13.7c-10.4-0.6-15.6-0.9-26-1.3l3.4-13.7
							C3327.1,2328.3,3332.3,2328.6,3342.7,2329.3"/>
					</g>
				</g>
				<g enable-background="new    ">
					<defs>
						<path id="SVGID_71_" enable-background="new    " d="M3341.7,2340.3c-1.1,4.3-2.2,8.7-3.2,13c-0.1,0.2-0.1,0.5-0.2,0.7
							c0.5-2.2,0.9-4.6,0.9-7.1c0-1.5,0.1-2.3,0.1-3.9l3.4-13.7c0,1.5-0.1,2.3-0.1,3.9C3342.6,2335.7,3342.3,2338.1,3341.7,2340.3z"
							/>
					</defs>
					<clipPath id="SVGID_72_">
						<use xlink:href="#SVGID_71_"  overflow="visible"/>
					</clipPath>
					<g clip-path="url(#SVGID_72_)" enable-background="new    ">
						<path fill="#763D3D" d="M3341.7,2340.3l-3.4,13.7c0.5-2.2,0.9-4.6,0.9-7.1c0-1.5,0.1-2.3,0.1-3.9l3.4-13.7
							c0,1.5-0.1,2.3-0.1,3.9C3342.6,2335.7,3342.3,2338.1,3341.7,2340.3"/>
					</g>
				</g>
				<g enable-background="new    ">
					<defs>
						<path id="SVGID_73_" enable-background="new    " d="M3229.6,2340.8c-1.1,4.6-2.3,9.1-3.4,13.7c0.7-2.7,1-5.8,0.8-9
							c-0.6-14.5-1.3-29-1.9-43.5c-0.6-16.6-12.8-25-24.7-25.8c-1.2-0.1-2.3-0.1-3.5,0c-10.4,0.6-21.2,7.3-24.2,19.4
							c1.1-4.6,2.3-9.1,3.4-13.7c3-12.1,13.9-18.8,24.2-19.4c1.1-0.1,2.3-0.1,3.5,0c11.9,0.8,24.1,9.2,24.7,25.8
							c0.6,14.5,1.3,29,1.9,43.5C3230.6,2335,3230.3,2338,3229.6,2340.8z"/>
					</defs>
					<clipPath id="SVGID_74_">
						<use xlink:href="#SVGID_73_"  overflow="visible"/>
					</clipPath>
					<g clip-path="url(#SVGID_74_)" enable-background="new    ">
						<path fill="#763D3D" d="M3229.6,2340.8l-3.4,13.7c0.7-2.7,1-5.8,0.8-9c-0.6-14.5-1.3-29-1.9-43.5c-0.6-16.6-12.8-25-24.7-25.8
							c-1.2-0.1-2.3-0.1-3.5,0c-6.9,0.4-14,3.5-18.9,9.1l3.4-13.7c4.9-5.6,12-8.7,18.9-9.1c1.1-0.1,2.3-0.1,3.5,0
							c11.9,0.8,24.1,9.2,24.7,25.8c0.6,14.5,1.3,29,1.9,43.5C3230.6,2335,3230.3,2338,3229.6,2340.8"/>
						<path fill="#7A4040" d="M3181.4,2271.5l-3.4,13.7c-1.9,2.2-3.5,4.7-4.5,7.7l3.4-13.7C3178,2276.3,3179.5,2273.7,3181.4,2271.5
							"/>
						<path fill="#7F4242" d="M3176.9,2279.2l-3.4,13.7c-0.3,0.9-0.6,1.7-0.8,2.6l3.4-13.7C3176.3,2280.9,3176.6,2280,3176.9,2279.2
							"/>
					</g>
				</g>
				<g enable-background="new    ">
					<defs>
						<path id="SVGID_75_" enable-background="new    " d="M3114.4,2342.1l-3.4,13.7c-3.6-32.2-7.2-64.4-10.7-96.6l3.4-13.7
							C3107.3,2277.7,3110.9,2309.9,3114.4,2342.1z"/>
					</defs>
					<clipPath id="SVGID_76_">
						<use xlink:href="#SVGID_75_"  overflow="visible"/>
					</clipPath>
					<g clip-path="url(#SVGID_76_)" enable-background="new    ">
						<path fill="#763D3D" d="M3114.4,2342.1l-3.4,13.7c-3.6-32.2-7.2-64.4-10.7-96.6l3.4-13.7
							C3107.3,2277.7,3110.9,2309.9,3114.4,2342.1"/>
					</g>
				</g>
				<g enable-background="new    ">
					<defs>
						<path id="SVGID_77_" enable-background="new    " d="M3367.4,2349.6c-1.1,4.6-2.3,9.1-3.4,13.7c-6.5,26.1-28.2,38.9-51.1,38
							c-0.5,0-1,0-1.5-0.1c-26.2-1.7-50.2-21.2-50.9-56.5c-0.4-14.5-0.7-29-1.1-43.5c-0.2-6.5,0.4-12.3,1.8-17.7l3.4-13.7
							c-1.3,5.3-2,11.2-1.8,17.7c0.4,14.5,0.7,29,1.1,43.5c0.7,35.3,24.6,54.8,50.9,56.5c0.5,0,1,0.1,1.5,0.1
							C3339.2,2388.5,3360.9,2375.7,3367.4,2349.6z"/>
					</defs>
					<clipPath id="SVGID_78_">
						<use xlink:href="#SVGID_77_"  overflow="visible"/>
					</clipPath>
					<g clip-path="url(#SVGID_78_)" enable-background="new    ">
						<path fill="#7F4242" d="M3367.4,2349.6l-3.4,13.7c-0.5,2.1-1.1,4.1-1.8,6l3.4-13.7C3366.3,2353.6,3366.9,2351.7,3367.4,2349.6
							"/>
						<path fill="#7A4040" d="M3365.6,2355.5l-3.4,13.7c-2.2,6.1-5.4,11.3-9.2,15.6l3.4-13.7
							C3360.2,2366.8,3363.4,2361.6,3365.6,2355.5"/>
						<path fill="#763D3D" d="M3356.4,2371.2l-3.4,13.7c-10.1,11.5-24.8,17-40.1,16.4c-0.5,0-1,0-1.5-0.1
							c-26.2-1.7-50.2-21.2-50.9-56.5c-0.4-14.5-0.7-29-1.1-43.5c-0.2-6.5,0.4-12.3,1.8-17.7l3.4-13.7c-1.3,5.3-2,11.2-1.8,17.7
							c0.4,14.5,0.7,29,1.1,43.5c0.7,35.3,24.6,54.8,50.9,56.5c0.5,0,1,0.1,1.5,0.1C3331.6,2388.2,3346.4,2382.7,3356.4,2371.2"/>
					</g>
				</g>
				<g>
					<path fill="#D16D6D" d="M3318.9,2232.6c24.9,1.6,50.9,18.5,52.1,53c-8.5-0.7-13.7-1.1-20.7-1.6c-2.1-0.1-4.4-0.3-7-0.4
						c-2.5-14.6-14.5-21.7-25.4-22.4c-0.3,0-0.5,0-0.8,0c-12.9-0.5-27.1,8.2-26.8,26.4c0.1,14.5,0.3,29,0.4,43.5
						c0,17.2,12.6,27,25.1,27.8c0.2,0,0.5,0,0.7,0c12.7,0.5,25.9-8.3,26.1-25.8c0-1.5,0.1-2.3,0.1-3.9c-10.4-0.6-15.6-0.9-26-1.3
						c0.1-11.5,0.1-17.2,0.2-28.6c10.7,0.5,21.4,1,32.1,1.7c7.2,0.5,14.4,1,21.7,1.6c-0.5,13-0.7,19.5-1.2,32.5
						c-1.1,35.9-26.2,53.5-53.1,52.5c-0.5,0-1,0-1.5-0.1c-26.2-1.7-50.2-21.2-50.9-56.5c-0.4-14.5-0.7-29-1.1-43.5
						c-1.2-38.3,26.8-56,54.4-54.9C3317.8,2232.6,3318.3,2232.6,3318.9,2232.6z"/>
				</g>
				<g enable-background="new    ">
					<defs>
						<path id="SVGID_79_" enable-background="new    " d="M3013.7,2290.9l-3.4,13.7c-19.9,4.5-39.7,9.5-59.4,14.9l3.4-13.7
							C2974.1,2300.4,2993.8,2295.5,3013.7,2290.9z"/>
					</defs>
					<clipPath id="SVGID_80_">
						<use xlink:href="#SVGID_79_"  overflow="visible"/>
					</clipPath>
					<g clip-path="url(#SVGID_80_)" enable-background="new    ">
						<path fill="#763D3D" d="M3013.7,2290.9l-3.4,13.7c-19.9,4.5-39.7,9.5-59.4,14.9l3.4-13.7
							C2974.1,2300.4,2993.8,2295.5,3013.7,2290.9"/>
					</g>
				</g>
				<g enable-background="new    ">
					<defs>
						<path id="SVGID_81_" enable-background="new    " d="M3255.3,2349.7c-1.1,4.6-2.3,9.1-3.4,13.7c-6,24.3-25.8,37.8-47.5,39.1
							c-2.4,0.1-4.8,0.1-7.1,0c-24.1-1.6-45.9-18.7-48.7-51.3c-1.3-14.5-2.6-28.9-3.9-43.4c-0.8-7.9-0.2-15,1.4-21.4
							c1.1-4.6,2.3-9.1,3.4-13.7c-1.6,6.4-2.1,13.5-1.4,21.4c1.3,14.4,2.6,28.9,3.9,43.4c2.8,32.7,24.6,49.8,48.7,51.3
							c2.4,0.2,4.7,0.2,7.1,0C3229.5,2387.5,3249.3,2374,3255.3,2349.7z"/>
					</defs>
					<clipPath id="SVGID_82_">
						<use xlink:href="#SVGID_81_"  overflow="visible"/>
					</clipPath>
					<g clip-path="url(#SVGID_82_)" enable-background="new    ">
						<path fill="#7F4242" d="M3255.3,2349.7l-3.4,13.7c-0.5,2-1.1,4-1.8,5.9l3.4-13.7C3254.2,2353.7,3254.8,2351.7,3255.3,2349.7"
							/>
						<path fill="#7A4040" d="M3253.5,2355.6l-3.4,13.7c-2.3,6.1-5.5,11.4-9.4,15.9l3.4-13.7C3248,2367,3251.2,2361.7,3253.5,2355.6
							"/>
						<path fill="#763D3D" d="M3244.1,2371.5l-3.4,13.7c-9.2,10.6-22.4,16.5-36.4,17.3c-2.4,0.1-4.8,0.1-7.1,0
							c-24.1-1.6-45.9-18.7-48.7-51.3c-1.3-14.5-2.6-28.9-3.9-43.4c-0.8-7.9-0.2-15,1.4-21.4l3.4-13.7c-1.6,6.4-2.1,13.5-1.4,21.4
							c1.3,14.4,2.6,28.9,3.9,43.4c2.8,32.7,24.6,49.8,48.7,51.3c2.4,0.2,4.7,0.2,7.1,0C3221.7,2387.9,3234.9,2382,3244.1,2371.5"/>
					</g>
				</g>
				<g>
					<path fill="#D16D6D" d="M3257.1,2331.1c1.2,36-22.6,56.1-49.4,57.7c-2.4,0.1-4.8,0.1-7.1,0c-24.1-1.6-45.9-18.7-48.7-51.3
						c-1.3-14.5-2.6-28.9-3.9-43.4c-3.6-38.1,23-58.6,50.6-60.2c2.5-0.2,5.1-0.1,7.6,0c25,1.6,48.9,18.9,49.7,53.7
						C3256.3,2302.1,3256.7,2316.6,3257.1,2331.1z M3206.1,2360.1c12.7-0.8,25.3-10.9,24.3-28.4c-0.6-14.5-1.3-29-1.9-43.5
						c-0.6-16.6-12.8-25-24.7-25.8c-1.2-0.1-2.3-0.1-3.5,0c-12.9,0.8-26.5,10.9-24.9,29c1.1,14.5,2.1,29,3.2,43.4
						c1,16,12.5,24.5,24.2,25.3C3203.9,2360.2,3205,2360.2,3206.1,2360.1"/>
				</g>
				<g enable-background="new    ">
					<defs>
						<path id="SVGID_83_" enable-background="new    " d="M3120.4,2395.4l-3.4,13.7c-20.5-30-41.6-59.3-63.4-87.9l3.4-13.7
							C3078.7,2336.1,3099.9,2365.4,3120.4,2395.4z"/>
					</defs>
					<clipPath id="SVGID_84_">
						<use xlink:href="#SVGID_83_"  overflow="visible"/>
					</clipPath>
					<g clip-path="url(#SVGID_84_)" enable-background="new    ">
						<path fill="#763D3D" d="M3120.4,2395.4l-3.4,13.7c-20.5-30-41.6-59.3-63.4-87.9l3.4-13.7
							C3078.7,2336.1,3099.9,2365.4,3120.4,2395.4"/>
					</g>
				</g>
				<g enable-background="new    ">
					<defs>
						<path id="SVGID_85_" enable-background="new    " d="M3146.1,2392l-3.4,13.7c-10.3,1.2-15.5,1.9-25.8,3.3l3.4-13.7
							C3130.7,2393.9,3135.8,2393.3,3146.1,2392z"/>
					</defs>
					<clipPath id="SVGID_86_">
						<use xlink:href="#SVGID_85_"  overflow="visible"/>
					</clipPath>
					<g clip-path="url(#SVGID_86_)" enable-background="new    ">
						<path fill="#763D3D" d="M3146.1,2392l-3.4,13.7c-10.3,1.2-15.5,1.9-25.8,3.3l3.4-13.7
							C3130.7,2393.9,3135.8,2393.3,3146.1,2392"/>
					</g>
				</g>
				<g enable-background="new    ">
					<defs>
						<path id="SVGID_87_" enable-background="new    " d="M3023.5,2350.3l-3.4,13.7c-19.2,4.3-38.4,9.1-57.4,14.4l3.4-13.7
							C2985.1,2359.4,3004.3,2354.6,3023.5,2350.3z"/>
					</defs>
					<clipPath id="SVGID_88_">
						<use xlink:href="#SVGID_87_"  overflow="visible"/>
					</clipPath>
					<g clip-path="url(#SVGID_88_)" enable-background="new    ">
						<path fill="#763D3D" d="M3023.5,2350.3l-3.4,13.7c-19.2,4.3-38.4,9.1-57.4,14.4l3.4-13.7
							C2985.1,2359.4,3004.3,2354.6,3023.5,2350.3"/>
					</g>
				</g>
				<g enable-background="new    ">
					<defs>
						<path id="SVGID_89_" enable-background="new    " d="M3045,2408.7l-3.4,13.7c-7.8-49.6-15.6-99.1-23.4-148.7l3.4-13.7
							C3029.3,2309.6,3037.2,2359.1,3045,2408.7z"/>
					</defs>
					<clipPath id="SVGID_90_">
						<use xlink:href="#SVGID_89_"  overflow="visible"/>
					</clipPath>
					<g clip-path="url(#SVGID_90_)" enable-background="new    ">
						<path fill="#763D3D" d="M3045,2408.7l-3.4,13.7c-7.8-49.6-15.6-99.1-23.4-148.7l3.4-13.7
							C3029.3,2309.6,3037.2,2359.1,3045,2408.7"/>
					</g>
				</g>
				<g>
					<path fill="#D16D6D" d="M3131.8,2241.9c4.8,50,9.6,100.1,14.4,150.1c-10.3,1.2-15.5,1.9-25.8,3.3c-20.5-30-41.6-59.3-63.4-87.9
						c4.5,32,9.1,64.1,13.6,96.1c-10.2,1.9-15.4,2.9-25.6,5.1c-7.8-49.6-15.6-99.1-23.4-148.7c9.3-2,18.6-3.8,27.9-5.6
						c22.3,28.5,44,57.7,65,87.6c-3.6-32.2-7.2-64.4-10.7-96.6C3113,2244.2,3122.4,2243,3131.8,2241.9z"/>
				</g>
				<g enable-background="new    ">
					<defs>
						<path id="SVGID_91_" enable-background="new    " d="M3070.5,2403.6l-3.4,13.7c-10.2,1.9-15.4,2.9-25.6,5.1l3.4-13.7
							C3055.2,2406.5,3060.3,2405.5,3070.5,2403.6z"/>
					</defs>
					<clipPath id="SVGID_92_">
						<use xlink:href="#SVGID_91_"  overflow="visible"/>
					</clipPath>
					<g clip-path="url(#SVGID_92_)" enable-background="new    ">
						<path fill="#763D3D" d="M3070.5,2403.6l-3.4,13.7c-10.2,1.9-15.4,2.9-25.6,5.1l3.4-13.7
							C3055.2,2406.5,3060.3,2405.5,3070.5,2403.6"/>
					</g>
				</g>
				<g enable-background="new    ">
					<defs>
						<path id="SVGID_93_" enable-background="new    " d="M2814.2,2354l-3.4,13.7c-3.1-10.9-4.7-16.3-7.8-27.2l3.4-13.7
							C2809.5,2337.7,2811.1,2343.2,2814.2,2354z"/>
					</defs>
					<clipPath id="SVGID_94_">
						<use xlink:href="#SVGID_93_"  overflow="visible"/>
					</clipPath>
					<g clip-path="url(#SVGID_94_)" enable-background="new    ">
						<path fill="#763D3D" d="M2814.2,2354l-3.4,13.7c-3.1-10.9-4.7-16.3-7.8-27.2l3.4-13.7
							C2809.5,2337.7,2811.1,2343.2,2814.2,2354"/>
					</g>
				</g>
				<g enable-background="new    ">
					<defs>
						<path id="SVGID_95_" enable-background="new    " d="M2883,2328l-3.4,13.7c-23.1,8.1-46,16.8-68.7,26l3.4-13.7
							C2837,2344.8,2859.9,2336.1,2883,2328z"/>
					</defs>
					<clipPath id="SVGID_96_">
						<use xlink:href="#SVGID_95_"  overflow="visible"/>
					</clipPath>
					<g clip-path="url(#SVGID_96_)" enable-background="new    ">
						<path fill="#763D3D" d="M2883,2328l-3.4,13.7c-23.1,8.1-46,16.8-68.7,26l3.4-13.7C2837,2344.8,2859.9,2336.1,2883,2328"/>
					</g>
				</g>
				<g enable-background="new    ">
					<defs>
						<path id="SVGID_97_" enable-background="new    " d="M2815.3,2366.9l-3.4,13.7c-9,3.8-18.1,7.6-27,11.6l3.4-13.7
							C2797.2,2374.5,2806.2,2370.6,2815.3,2366.9z"/>
					</defs>
					<clipPath id="SVGID_98_">
						<use xlink:href="#SVGID_97_"  overflow="visible"/>
					</clipPath>
					<g clip-path="url(#SVGID_98_)" enable-background="new    ">
						<path fill="#763D3D" d="M2815.3,2366.9l-3.4,13.7c-9,3.8-18.1,7.6-27,11.6l3.4-13.7
							C2797.2,2374.5,2806.2,2370.6,2815.3,2366.9"/>
					</g>
				</g>
				<g enable-background="new    ">
					<defs>
						<path id="SVGID_99_" enable-background="new    " d="M2952.9,2432.4l-3.4,13.7c-10.6-48.8-21.1-97.7-31.7-146.5l3.4-13.7
							C2931.8,2334.7,2942.3,2383.5,2952.9,2432.4z"/>
					</defs>
					<clipPath id="SVGID_100_">
						<use xlink:href="#SVGID_99_"  overflow="visible"/>
					</clipPath>
					<g clip-path="url(#SVGID_100_)" enable-background="new    ">
						<path fill="#763D3D" d="M2952.9,2432.4l-3.4,13.7c-10.6-48.8-21.1-97.7-31.7-146.5l3.4-13.7
							C2931.8,2334.7,2942.3,2383.5,2952.9,2432.4"/>
					</g>
				</g>
				<g>
					<path fill="#D16D6D" d="M3009.1,2262.7c1.9,11.3,2.8,16.9,4.6,28.2c-19.9,4.5-39.7,9.5-59.4,14.9c2.5,12.4,3.7,18.6,6.2,30.9
						c19.4-5.4,38.8-10.2,58.4-14.6c1.9,11.3,2.8,16.9,4.6,28.2c-19.2,4.3-38.4,9.1-57.4,14.4c2.6,12.9,3.9,19.4,6.5,32.4
						c18.7-5.1,37.5-9.8,56.3-14.1c1.9,11.3,2.8,16.9,4.6,28.2c-27.1,6.2-53.9,13.2-80.7,21.2c-10.6-48.8-21.1-97.7-31.7-146.5
						C2950.3,2277.2,2979.6,2269.5,3009.1,2262.7z"/>
				</g>
				<g enable-background="new    ">
					<defs>
						<path id="SVGID_101_" enable-background="new    " d="M3033.5,2411.2l-3.4,13.7c-27.1,6.2-53.9,13.2-80.7,21.2l3.4-13.7
							C2979.6,2424.4,3006.5,2417.4,3033.5,2411.2z"/>
					</defs>
					<clipPath id="SVGID_102_">
						<use xlink:href="#SVGID_101_"  overflow="visible"/>
					</clipPath>
					<g clip-path="url(#SVGID_102_)" enable-background="new    ">
						<path fill="#763D3D" d="M3033.5,2411.2l-3.4,13.7c-27.1,6.2-53.9,13.2-80.7,21.2l3.4-13.7
							C2979.6,2424.4,3006.5,2417.4,3033.5,2411.2"/>
					</g>
				</g>
				<g enable-background="new    ">
					<defs>
						<path id="SVGID_103_" enable-background="new    " d="M2745.3,2402.4c1.1-4.6,2.3-9.1,3.4-13.7c1.5-6,6.9-11.1,14.5-14.6
							c4.1-1.9,8.6-2.9,12.8-2.6c4.9,0.3,9.4,2.4,12.2,7l-3.4,13.7c-2.8-4.6-7.3-6.7-12.2-7c-4.2-0.3-8.8,0.8-12.8,2.6
							C2752.2,2391.4,2746.8,2396.4,2745.3,2402.4z"/>
					</defs>
					<clipPath id="SVGID_104_">
						<use xlink:href="#SVGID_103_"  overflow="visible"/>
					</clipPath>
					<g clip-path="url(#SVGID_104_)" enable-background="new    ">
						<path fill="#763D3D" d="M2788.2,2378.5l-3.4,13.7c-2.8-4.6-7.3-6.7-12.2-7c-4.2-0.3-8.8,0.8-12.8,2.6
							c-4.4,2.1-8.1,4.6-10.7,7.6l3.4-13.7c2.6-3,6.2-5.5,10.7-7.6c4.1-1.9,8.6-2.9,12.8-2.6
							C2780.9,2371.8,2785.4,2373.9,2788.2,2378.5"/>
						<path fill="#7A4040" d="M2752.5,2381.7l-3.4,13.7c-1.5,1.7-2.6,3.5-3.3,5.5l3.4-13.7C2749.9,2385.3,2751,2383.4,2752.5,2381.7
							"/>
						<path fill="#7F4242" d="M2749.2,2387.2l-3.4,13.7c-0.2,0.5-0.3,1-0.5,1.5l3.4-13.7C2748.8,2388.2,2749,2387.7,2749.2,2387.2"
							/>
					</g>
				</g>
				<g enable-background="new    ">
					<defs>
						<path id="SVGID_105_" enable-background="new    " d="M2918.7,2316.3l-3.4,13.7c-16.5,37.3-32,75.1-46.5,113.6l3.4-13.7
							C2886.8,2391.3,2902.2,2353.5,2918.7,2316.3z"/>
					</defs>
					<clipPath id="SVGID_106_">
						<use xlink:href="#SVGID_105_"  overflow="visible"/>
					</clipPath>
					<g clip-path="url(#SVGID_106_)" enable-background="new    ">
						<path fill="#7A4040" d="M2918.7,2316.3l-3.4,13.7c-16.5,37.3-32,75.1-46.5,113.6l3.4-13.7
							C2886.8,2391.3,2902.2,2353.5,2918.7,2316.3"/>
					</g>
				</g>
				<g enable-background="new    ">
					<defs>
						<path id="SVGID_107_" enable-background="new    " d="M2810.8,2449.5c-1.1,4.6-2.3,9.1-3.4,13.7c0.6-2.5,0.6-5.2-0.3-8
							c-1.8-6-5.5-8.9-11.6-9.3c-2-0.1-4.2,0-6.6,0.4c-9.7,1.5-14.6,2.3-24.4,4l3.4-13.7c9.8-1.7,14.6-2.5,24.4-4
							c2.5-0.4,4.7-0.5,6.6-0.4c6.1,0.4,9.8,3.3,11.6,9.3C2811.4,2444.3,2811.5,2447,2810.8,2449.5z"/>
					</defs>
					<clipPath id="SVGID_108_">
						<use xlink:href="#SVGID_107_"  overflow="visible"/>
					</clipPath>
					<g clip-path="url(#SVGID_108_)" enable-background="new    ">
						<path fill="#763D3D" d="M2810.8,2449.5l-3.4,13.7c0.6-2.5,0.6-5.2-0.3-8c-1.8-6-5.5-8.9-11.6-9.3c-2-0.1-4.2,0-6.6,0.4
							c-9.7,1.5-14.6,2.3-24.4,4l3.4-13.7c9.8-1.7,14.6-2.5,24.4-4c2.5-0.4,4.7-0.5,6.6-0.4c6.1,0.4,9.8,3.3,11.6,9.3
							C2811.4,2444.3,2811.5,2447,2810.8,2449.5"/>
					</g>
				</g>
				<g enable-background="new    ">
					<defs>
						<path id="SVGID_109_" enable-background="new    " d="M2718.5,2398.3c1.1-4.6,2.3-9.1,3.4-13.7c-2,7.8-1.8,16.5,1.4,25.6
							c6.2,17.6,19.4,26.1,33.7,27c3.6,0.2,7.3,0,10.9-0.7l-3.4,13.7c-3.6,0.7-7.3,1-10.9,0.7c-14.2-0.9-27.5-9.5-33.7-27
							C2716.7,2414.8,2716.5,2406.1,2718.5,2398.3z"/>
					</defs>
					<clipPath id="SVGID_110_">
						<use xlink:href="#SVGID_109_"  overflow="visible"/>
					</clipPath>
					<g clip-path="url(#SVGID_110_)" enable-background="new    ">
						<path fill="#763D3D" d="M2767.9,2436.5l-3.4,13.7c-3.6,0.7-7.3,1-10.9,0.7c-14.2-0.9-27.5-9.5-33.7-27
							c-3.2-9.2-3.4-17.8-1.4-25.6l3.4-13.7c-2,7.8-1.8,16.5,1.4,25.6c6.2,17.6,19.4,26.1,33.7,27
							C2760.6,2437.5,2764.3,2437.3,2767.9,2436.5"/>
					</g>
				</g>
				<g>
					<path fill="#D16D6D" d="M2912.6,2288.5c2.5,11.1,3.7,16.7,6.2,27.8c-16.5,37.3-32,75.1-46.5,113.6
						c22.4-8.3,44.8-16.1,67.5-23.2c2.5,11.1,3.7,16.7,6.1,27.8c-33.5,10.6-66.5,22.6-99.3,35.9c-3.1-10.9-4.7-16.3-7.8-27.2
						c13.7-39.1,28.4-77.4,44.2-115.2c-23.1,8.1-46,16.8-68.7,26c-3.1-10.9-4.7-16.3-7.8-27.2
						C2841.5,2312.6,2876.8,2299.8,2912.6,2288.5z"/>
				</g>
				<g enable-background="new    ">
					<defs>
						<path id="SVGID_111_" enable-background="new    " d="M2846.6,2470.4l-3.4,13.7c-3.1-10.9-4.7-16.3-7.8-27.2l3.4-13.7
							C2841.9,2454.1,2843.5,2459.5,2846.6,2470.4z"/>
					</defs>
					<clipPath id="SVGID_112_">
						<use xlink:href="#SVGID_111_"  overflow="visible"/>
					</clipPath>
					<g clip-path="url(#SVGID_112_)" enable-background="new    ">
						<path fill="#763D3D" d="M2846.6,2470.4l-3.4,13.7c-3.1-10.9-4.7-16.3-7.8-27.2l3.4-13.7
							C2841.9,2454.1,2843.5,2459.5,2846.6,2470.4"/>
					</g>
				</g>
				<g enable-background="new    ">
					<defs>
						<path id="SVGID_113_" enable-background="new    " d="M2945.9,2434.5l-3.4,13.7c-33.5,10.6-66.5,22.6-99.3,35.9l3.4-13.7
							C2879.4,2457,2912.4,2445.1,2945.9,2434.5z"/>
					</defs>
					<clipPath id="SVGID_114_">
						<use xlink:href="#SVGID_113_"  overflow="visible"/>
					</clipPath>
					<g clip-path="url(#SVGID_114_)" enable-background="new    ">
						<path fill="#763D3D" d="M2945.9,2434.5l-3.4,13.7c-33.5,10.6-66.5,22.6-99.3,35.9l3.4-13.7
							C2879.4,2457,2912.4,2445.1,2945.9,2434.5"/>
					</g>
				</g>
				<g enable-background="new    ">
					<defs>
						<path id="SVGID_115_" enable-background="new    " d="M2836.5,2455.5c-1.1,4.6-2.3,9.1-3.4,13.7
							c-4.2,16.7-17.6,29.1-31.7,35.5c-8.3,3.8-17.5,5.7-26.3,5.2c-15.1-1-29.3-9.3-36.9-28.2l3.4-13.7
							c7.7,18.9,21.9,27.2,36.9,28.2c8.8,0.6,18-1.4,26.3-5.2C2818.9,2484.5,2832.3,2472.2,2836.5,2455.5z"/>
					</defs>
					<clipPath id="SVGID_116_">
						<use xlink:href="#SVGID_115_"  overflow="visible"/>
					</clipPath>
					<g clip-path="url(#SVGID_116_)" enable-background="new    ">
						<path fill="#7F4242" d="M2836.5,2455.5l-3.4,13.7c-0.4,1.6-0.9,3.1-1.4,4.6l3.4-13.7
							C2835.6,2458.6,2836.1,2457.1,2836.5,2455.5"/>
						<path fill="#7A4040" d="M2835.1,2460.1l-3.4,13.7c-2.1,5.8-5.3,10.9-9.3,15.4l3.4-13.7C2829.7,2471,2833,2465.9,2835.1,2460.1
							"/>
						<path fill="#763D3D" d="M2825.8,2475.5l-3.4,13.7c-5.9,6.7-13.4,12-21,15.5c-8.3,3.8-17.5,5.7-26.3,5.2
							c-15.1-1-29.3-9.3-36.9-28.2l3.4-13.7c7.7,18.9,21.9,27.2,36.9,28.2c8.8,0.6,18-1.4,26.3-5.2
							C2812.4,2487.5,2819.9,2482.2,2825.8,2475.5"/>
					</g>
				</g>
				<g>
					<path fill="#D16D6D" d="M2781.3,2341.8c13.8,0.9,26.8,8.2,34,25.1c-9,3.8-18.1,7.6-27,11.6c-2.8-4.6-7.3-6.7-12.2-7
						c-4.2-0.3-8.8,0.8-12.8,2.6c-11,5.1-17.3,13.3-14,23.2c1.9,5.6,5.8,7.7,10.7,8c2.3,0.2,4.8-0.1,7.4-0.6
						c9.6-1.6,14.4-2.4,23.9-3.8c3.5-0.6,6.9-0.8,10.3-0.6c15.3,1,28.7,10.6,34.3,30.3c8.4,29.4-10.7,51-31,60.3
						c-8.3,3.8-17.5,5.7-26.3,5.2c-15.1-1-29.3-9.3-36.9-28.2c8.5-4.4,17.1-8.7,25.7-12.9c3.8,7.6,10.2,11.1,16.8,11.5
						c4.1,0.3,8.4-0.7,12.2-2.5c10.8-5.2,17.2-12.9,14.3-22.6c-1.8-6-5.5-8.9-11.6-9.3c-2-0.1-4.2,0-6.6,0.4
						c-9.7,1.5-14.6,2.3-24.4,4c-3.6,0.7-7.3,1-10.9,0.7c-14.2-0.9-27.5-9.5-33.7-27c-10.4-29.7,11.6-53.7,31.7-63.1
						C2763.2,2343.3,2772.4,2341.2,2781.3,2341.8z"/>
				</g>
			</g>
		</g>
	</g>
	<rect x="2863" y="2298" fill="#C67575" width="5" height="18"/>
	<ellipse fill="none" stroke="#C67575" stroke-width="3" stroke-miterlimit="10" cx="2865.5" cy="2295.4" rx="3.4" ry="5.2"/>
	<rect x="3679" y="2290" fill="#C67575" width="5" height="16"/>
	<ellipse fill="none" stroke="#C67575" stroke-width="3" stroke-miterlimit="10" cx="3681.5" cy="2286.2" rx="3.4" ry="5.2"/>
	<g>
		<g>
			<path fill="#E86D78" d="M47.4,77.1c3.1,0.4,6.6-0.3,9.2-2.4c2.4-2,2.9-4.9,1.2-6.9c-3-3.6-8.6,0.3-14.2,1.2
				c-3.3,0.5-6.6,0.1-9.3-3.1c-4.2-5-1.9-11.7,2.7-15.6c2.8-2.4,6.1-3.9,10.3-4.1l0.5,6.3c-2-0.1-4.5,0.7-6.4,2.2
				c-2,1.7-3.6,4.5-1.8,6.6c3.8,4.5,15.5-7.6,23.4,1.8c4.1,5,2.5,12.1-2.5,16.3C56.8,82.6,52,84,47,83.7L47.4,77.1z"/>
		</g>
		<g>
			<path fill="#E86D78" d="M104.3,39.1l13.4-28.5l-15.9,2.5l-1-6.2l25.2-4l0.7,4.1l-13.4,28.5l18.6-3l1,6.2l-27.8,4.4L104.3,39.1z"
				/>
		</g>
		<g>
			<path fill="#E86D78" d="M196.3,8.3l-2.6,7.1l10.5,3.8l-2.1,5.9l-10.5-3.8l-3.5,9.5l14.4,5.3l-2.1,5.9l-21-7.7L191.9,0l20.5,7.5
				l-2.1,5.9L196.3,8.3z"/>
		</g>
		<g>
			<path fill="#E86D78" d="M274.4,37.8l3,4l-6.8,30.5l19-14.2l4.2,5.6l-29.2,21.9l-3-4l6.8-30.5l-19,14.2l-4.2-5.6L274.4,37.8z"/>
		</g>
		<g>
			<path fill="#E86D78" d="M330.4,142c0.4,11.2-7.6,19.3-18,19.7c-10.4,0.4-19-7-19.5-18.3c-0.4-11.2,7.6-19.3,18-19.7
				C321.3,123.4,330,130.8,330.4,142z M299.2,143.3c0.3,6.9,6.1,11.7,12.9,11.5c6.9-0.3,12.3-5.6,12-12.4
				c-0.3-6.9-6.1-11.7-12.9-11.5C304.4,131.1,298.9,136.4,299.2,143.3z"/>
		</g>
		<g>
			<path fill="#E86D78" d="M305.8,225.4c-5.9-3.8-13.4-2.2-17.3,3.7c-1.8,2.8-2.3,5.7-2.1,8.3l6.6,4.3l5.1-7.9l5.2,3.4l-8.9,13.8
				l-13.6-8.8c-1.7-4.9-1.2-11,2.5-16.6c6.2-9.5,17.4-11.7,26.2-6c8.8,5.7,11.5,16.8,5.3,26.3c-2.9,4.5-7.2,7.3-11.6,8.4l-1.6-6.4
				c3-0.6,6-2.4,8-5.4C313.4,236.6,311.6,229.2,305.8,225.4z"/>
		</g>
		<g>
			<path fill="#E86D78" d="M246.8,295.6l-6.6-14.7l6.4-2.9l14.9,33.2l-12.1,5.4c-3.4,1.5-6,1.6-8.4,0.8c-2.6-0.9-4.8-2.8-6-5.5
				c-1.2-2.7-1.1-5.6-0.1-8.1c0.5-1.3,1.3-2.4,2.5-3.4l-19.3-9.7l7.9-3.6l18.4,9.4L246.8,295.6z M244,303.7
				c-1.9,0.8-2.5,1.6-2.8,2.4c-0.3,0.9-0.2,2,0.2,2.9c0.4,1,1.3,1.8,2.1,2.1c0.8,0.4,1.8,0.4,3.7-0.4l5.3-2.4l-3.2-7.1L244,303.7z"
				/>
		</g>
		<g>
			<path fill="#E86D78" d="M177.7,308l-21,33.6l-4.9-0.8l-9.9-38.4l7.3,1.1l2.2,8.5l14.5,2.2l4.6-7.5L177.7,308z M162.3,320.1
				l-9.2-1.4l2.9,11.4L162.3,320.1z"/>
		</g>
		<g>
			<path fill="#E86D78" d="M82.9,299l9.6-11.3l5.4,4.5L74.3,320l-10.5-8.8c-3.6-3-5-5.7-5.1-8.6c-0.2-2.6,0.8-5.4,2.7-7.6
				c1.8-2.2,4.5-3.7,7.1-3.9c2.9-0.3,5.7,0.6,9.3,3.6L82.9,299z M74,299.7c-1.8-1.5-3.1-1.9-4.3-1.7c-1.1,0.1-2.1,0.7-2.9,1.6
				c-0.8,0.9-1.2,2-1.1,3.2c0.1,1.2,0.6,2.4,2.4,4l4.9,4.1l5.9-7L74,299.7z"/>
		</g>
		<g>
			<path fill="#E86D78" d="M21.1,226.7l7.9,16.4l14.8-7.1l3,6.3l-32.9,15.7l-3-6.3l12.4-6l-7.9-16.4l-12.4,6l-3-6.3l32.9-15.7l3,6.3
				L21.1,226.7z"/>
		</g>
		<g>
			<path fill="none" stroke="#231F20" d="M93.9,105.6"/>
		</g>
		<g opacity="0.4">
			<g>
				<defs>
					<rect id="SVGID_117_" x="40.6" y="84.2" width="196.2" height="154.2"/>
				</defs>
				<clipPath id="SVGID_118_">
					<use xlink:href="#SVGID_117_"  overflow="visible"/>
				</clipPath>
				<g clip-path="url(#SVGID_118_)">
					<path fill="#FFFFFF" d="M79.6,118.9c0,0,42.4,102.8,42.6,103.7c1.8,6.4,16.9,11.5,37.7,11.5s38.6-4.5,37.7-10.8
						C196.8,216.6,79.6,118.9,79.6,118.9"/>
				</g>
			</g>
		</g>
		<g opacity="0.4">
			<g>
				<defs>
					<rect id="SVGID_119_" x="84.3" y="84.3" width="196.2" height="154.2"/>
				</defs>
				<clipPath id="SVGID_120_">
					<use xlink:href="#SVGID_119_"  overflow="visible"/>
				</clipPath>
				<g clip-path="url(#SVGID_120_)">
					<path fill="#FFFFFF" d="M241.4,119c0,0-42.4,102.8-42.6,103.7c-1.8,6.4-16.9,11.5-37.7,11.5c-20.8,0-38.6-4.5-37.7-10.8
						C124.2,216.7,241.4,119,241.4,119"/>
				</g>
			</g>
		</g>
		<g>
			<path fill="#FFFFFF" d="M160.5,234.2c20.6,0,37.2-4.3,37.2-9.7c0-5.3-16.7-9.7-37.2-9.7c-20.6,0-37.2,4.3-37.2,9.7
				C123.3,229.9,140,234.2,160.5,234.2"/>
		</g>
	</g>
</g>
</svg>
